<svg viewBox="0 0 1112.2000732421875 400" xmlns="http://www.w3.org/2000/svg"><g><g><g><g><g><line x1="51.5625" y1="378" x2="46.5625" y2="378" style="visibility: inherit;" fill="rgb(0, 0, 0)" stroke="rgb(204, 204, 204)" stroke-width="1px"></line><line x1="51.5625" y1="346.5" x2="46.5625" y2="346.5" style="visibility: inherit;" fill="rgb(0, 0, 0)" stroke="rgb(204, 204, 204)" stroke-width="1px"></line><line x1="51.5625" y1="314.99999999999994" x2="46.5625" y2="314.99999999999994" style="visibility: inherit;" fill="rgb(0, 0, 0)" stroke="rgb(204, 204, 204)" stroke-width="1px"></line><line x1="51.5625" y1="283.49999999999994" x2="46.5625" y2="283.49999999999994" style="visibility: inherit;" fill="rgb(0, 0, 0)" stroke="rgb(204, 204, 204)" stroke-width="1px"></line><line x1="51.5625" y1="251.99999999999986" x2="46.5625" y2="251.99999999999986" style="visibility: inherit;" fill="rgb(0, 0, 0)" stroke="rgb(204, 204, 204)" stroke-width="1px"></line><line x1="51.5625" y1="220.50000000000006" x2="46.5625" y2="220.50000000000006" style="visibility: inherit;" fill="rgb(0, 0, 0)" stroke="rgb(204, 204, 204)" stroke-width="1px"></line><line x1="51.5625" y1="189" x2="46.5625" y2="189" style="visibility: inherit;" fill="rgb(0, 0, 0)" stroke="rgb(204, 204, 204)" stroke-width="1px"></line><line x1="51.5625" y1="157.5" x2="46.5625" y2="157.5" style="visibility: inherit;" fill="rgb(0, 0, 0)" stroke="rgb(204, 204, 204)" stroke-width="1px"></line><line x1="51.5625" y1="125.99999999999993" x2="46.5625" y2="125.99999999999993" style="visibility: inherit;" fill="rgb(0, 0, 0)" stroke="rgb(204, 204, 204)" stroke-width="1px"></line><line x1="51.5625" y1="94.49999999999991" x2="46.5625" y2="94.49999999999991" style="visibility: inherit;" fill="rgb(0, 0, 0)" stroke="rgb(204, 204, 204)" stroke-width="1px"></line><line x1="51.5625" y1="62.9999999999999" x2="46.5625" y2="62.9999999999999" style="visibility: inherit;" fill="rgb(0, 0, 0)" stroke="rgb(204, 204, 204)" stroke-width="1px"></line><line x1="51.5625" y1="31.500000000000014" x2="46.5625" y2="31.500000000000014" style="visibility: inherit;" fill="rgb(0, 0, 0)" stroke="rgb(204, 204, 204)" stroke-width="1px"></line><line x1="51.5625" y1="0" x2="46.5625" y2="0" style="visibility: inherit;" fill="rgb(0, 0, 0)" stroke="rgb(204, 204, 204)" stroke-width="1px"></line></g><g transform="translate(41.5625, 0)"><text x="0" y="378" dx="0em" dy="0.3em" style="text-anchor: end; visibility: hidden; font-family: Roboto, sans-serif; font-size: 12px; font-weight: 200;" fill="rgb(50, 49, 63)" stroke="none" stroke-width="1px">0.72</text><text x="0" y="346.5" dx="0em" dy="0.3em" style="text-anchor: end; visibility: inherit; font-family: Roboto, sans-serif; font-size: 12px; font-weight: 200;" fill="rgb(50, 49, 63)" stroke="none" stroke-width="1px">0.74</text><text x="0" y="314.99999999999994" dx="0em" dy="0.3em" style="text-anchor: end; visibility: inherit; font-family: Roboto, sans-serif; font-size: 12px; font-weight: 200;" fill="rgb(50, 49, 63)" stroke="none" stroke-width="1px">0.76</text><text x="0" y="283.49999999999994" dx="0em" dy="0.3em" style="text-anchor: end; visibility: inherit; font-family: Roboto, sans-serif; font-size: 12px; font-weight: 200;" fill="rgb(50, 49, 63)" stroke="none" stroke-width="1px">0.78</text><text x="0" y="251.99999999999986" dx="0em" dy="0.3em" style="text-anchor: end; visibility: inherit; font-family: Roboto, sans-serif; font-size: 12px; font-weight: 200;" fill="rgb(50, 49, 63)" stroke="none" stroke-width="1px">0.8</text><text x="0" y="220.50000000000006" dx="0em" dy="0.3em" style="text-anchor: end; visibility: inherit; font-family: Roboto, sans-serif; font-size: 12px; font-weight: 200;" fill="rgb(50, 49, 63)" stroke="none" stroke-width="1px">0.82</text><text x="0" y="189" dx="0em" dy="0.3em" style="text-anchor: end; visibility: inherit; font-family: Roboto, sans-serif; font-size: 12px; font-weight: 200;" fill="rgb(50, 49, 63)" stroke="none" stroke-width="1px">0.84</text><text x="0" y="157.5" dx="0em" dy="0.3em" style="text-anchor: end; visibility: inherit; font-family: Roboto, sans-serif; font-size: 12px; font-weight: 200;" fill="rgb(50, 49, 63)" stroke="none" stroke-width="1px">0.86</text><text x="0" y="125.99999999999993" dx="0em" dy="0.3em" style="text-anchor: end; visibility: inherit; font-family: Roboto, sans-serif; font-size: 12px; font-weight: 200;" fill="rgb(50, 49, 63)" stroke="none" stroke-width="1px">0.88</text><text x="0" y="94.49999999999991" dx="0em" dy="0.3em" style="text-anchor: end; visibility: inherit; font-family: Roboto, sans-serif; font-size: 12px; font-weight: 200;" fill="rgb(50, 49, 63)" stroke="none" stroke-width="1px">0.9</text><text x="0" y="62.9999999999999" dx="0em" dy="0.3em" style="text-anchor: end; visibility: inherit; font-family: Roboto, sans-serif; font-size: 12px; font-weight: 200;" fill="rgb(50, 49, 63)" stroke="none" stroke-width="1px">0.92</text><text x="0" y="31.500000000000014" dx="0em" dy="0.3em" style="text-anchor: end; visibility: inherit; font-family: Roboto, sans-serif; font-size: 12px; font-weight: 200;" fill="rgb(50, 49, 63)" stroke="none" stroke-width="1px">0.94</text><text x="0" y="0" dx="0em" dy="0.3em" style="text-anchor: end; visibility: hidden; font-family: Roboto, sans-serif; font-size: 12px; font-weight: 200;" fill="rgb(50, 49, 63)" stroke="none" stroke-width="1px">0.96</text></g><line x1="51.5625" y1="0" x2="51.5625" y2="378" fill="rgb(0, 0, 0)" stroke="rgb(204, 204, 204)" stroke-width="1px"></line></g></g><g transform="translate(51, 0)" clip-path="url(#clip_0)"><clipPath id="clip_0"><rect width="1060" height="378"></rect></clipPath><g><g><g><line x1="0" y1="0" x2="0" y2="378" fill="rgb(0, 0, 0)" stroke="rgb(60, 60, 60)" stroke-width="1px" opacity="0.25"></line><line x1="75.75982142857143" y1="0" x2="75.75982142857143" y2="378" fill="rgb(0, 0, 0)" stroke="rgb(60, 60, 60)" stroke-width="1px" opacity="0.25"></line><line x1="151.51964285714286" y1="0" x2="151.51964285714286" y2="378" fill="rgb(0, 0, 0)" stroke="rgb(60, 60, 60)" stroke-width="1px" opacity="0.25"></line><line x1="227.27946428571428" y1="0" x2="227.27946428571428" y2="378" fill="rgb(0, 0, 0)" stroke="rgb(60, 60, 60)" stroke-width="1px" opacity="0.25"></line><line x1="303.0392857142857" y1="0" x2="303.0392857142857" y2="378" fill="rgb(0, 0, 0)" stroke="rgb(60, 60, 60)" stroke-width="1px" opacity="0.25"></line><line x1="378.79910714285717" y1="0" x2="378.79910714285717" y2="378" fill="rgb(0, 0, 0)" stroke="rgb(60, 60, 60)" stroke-width="1px" opacity="0.25"></line><line x1="454.55892857142857" y1="0" x2="454.55892857142857" y2="378" fill="rgb(0, 0, 0)" stroke="rgb(60, 60, 60)" stroke-width="1px" opacity="0.25"></line><line x1="530.31875" y1="0" x2="530.31875" y2="378" fill="rgb(0, 0, 0)" stroke="rgb(60, 60, 60)" stroke-width="1px" opacity="0.25"></line><line x1="606.0785714285714" y1="0" x2="606.0785714285714" y2="378" fill="rgb(0, 0, 0)" stroke="rgb(60, 60, 60)" stroke-width="1px" opacity="0.25"></line><line x1="681.8383928571429" y1="0" x2="681.8383928571429" y2="378" fill="rgb(0, 0, 0)" stroke="rgb(60, 60, 60)" stroke-width="1px" opacity="0.25"></line><line x1="757.5982142857143" y1="0" x2="757.5982142857143" y2="378" fill="rgb(0, 0, 0)" stroke="rgb(60, 60, 60)" stroke-width="1px" opacity="0.25"></line><line x1="833.3580357142857" y1="0" x2="833.3580357142857" y2="378" fill="rgb(0, 0, 0)" stroke="rgb(60, 60, 60)" stroke-width="1px" opacity="0.25"></line><line x1="909.1178571428571" y1="0" x2="909.1178571428571" y2="378" fill="rgb(0, 0, 0)" stroke="rgb(60, 60, 60)" stroke-width="1px" opacity="0.25"></line><line x1="984.8776785714286" y1="0" x2="984.8776785714286" y2="378" fill="rgb(0, 0, 0)" stroke="rgb(60, 60, 60)" stroke-width="1px" opacity="0.25"></line><line x1="1060.6375" y1="0" x2="1060.6375" y2="378" fill="rgb(0, 0, 0)" stroke="rgb(60, 60, 60)" stroke-width="1px" opacity="0.25"></line></g><g><line x1="0" y1="378" x2="1060.6375" y2="378" fill="rgb(0, 0, 0)" stroke="rgb(60, 60, 60)" stroke-width="1px" opacity="0.25"></line><line x1="0" y1="346.5" x2="1060.6375" y2="346.5" fill="rgb(0, 0, 0)" stroke="rgb(60, 60, 60)" stroke-width="1px" opacity="0.25"></line><line x1="0" y1="314.99999999999994" x2="1060.6375" y2="314.99999999999994" fill="rgb(0, 0, 0)" stroke="rgb(60, 60, 60)" stroke-width="1px" opacity="0.25"></line><line x1="0" y1="283.49999999999994" x2="1060.6375" y2="283.49999999999994" fill="rgb(0, 0, 0)" stroke="rgb(60, 60, 60)" stroke-width="1px" opacity="0.25"></line><line x1="0" y1="251.99999999999986" x2="1060.6375" y2="251.99999999999986" fill="rgb(0, 0, 0)" stroke="rgb(60, 60, 60)" stroke-width="1px" opacity="0.25"></line><line x1="0" y1="220.50000000000006" x2="1060.6375" y2="220.50000000000006" fill="rgb(0, 0, 0)" stroke="rgb(60, 60, 60)" stroke-width="1px" opacity="0.25"></line><line x1="0" y1="189" x2="1060.6375" y2="189" fill="rgb(0, 0, 0)" stroke="rgb(60, 60, 60)" stroke-width="1px" opacity="0.25"></line><line x1="0" y1="157.5" x2="1060.6375" y2="157.5" fill="rgb(0, 0, 0)" stroke="rgb(60, 60, 60)" stroke-width="1px" opacity="0.25"></line><line x1="0" y1="125.99999999999993" x2="1060.6375" y2="125.99999999999993" fill="rgb(0, 0, 0)" stroke="rgb(60, 60, 60)" stroke-width="1px" opacity="0.25"></line><line x1="0" y1="94.49999999999991" x2="1060.6375" y2="94.49999999999991" fill="rgb(0, 0, 0)" stroke="rgb(60, 60, 60)" stroke-width="1px" opacity="0.25"></line><line x1="0" y1="62.9999999999999" x2="1060.6375" y2="62.9999999999999" fill="rgb(0, 0, 0)" stroke="rgb(60, 60, 60)" stroke-width="1px" opacity="0.25"></line><line x1="0" y1="31.500000000000014" x2="1060.6375" y2="31.500000000000014" fill="rgb(0, 0, 0)" stroke="rgb(60, 60, 60)" stroke-width="1px" opacity="0.25"></line><line x1="0" y1="0" x2="1060.6375" y2="0" fill="rgb(0, 0, 0)" stroke="rgb(60, 60, 60)" stroke-width="1px" opacity="0.25"></line></g></g></g><g><g><line x1="0" y1="1512" x2="1060.6375" y2="1512" fill="rgb(0, 0, 0)" stroke="rgb(153, 153, 153)" stroke-width="1.5px"></line></g></g><g><g><line x1="75.75982142857143" y1="0" x2="75.75982142857143" y2="378" fill="rgb(0, 0, 0)" stroke="rgb(153, 153, 153)" stroke-width="1.5px"></line></g></g><g><g><g><g><g><path stroke="rgb(238, 51, 119)" stroke-width="2px" d="M75.75982142857143,370.26728045940393L81.32206542906746,347.82127299159765L85.97505688829366,344.65805648905894L90.33458426145835,343.5623577300678L95.08213239558533,342.21650307402695L100.36355157356152,330.4242724742095L105.76904850352182,320.06108534912227L110.50567880560516,325.40108971980413L115.24540263373017,317.40858856020463L119.87405414588295,320.908899161835L124.60822225376985,316.48634245935943L128.8839634733135,307.3516596618236L132.99273425530754,297.29913312231554L137.10982599102184,292.71163447305395L140.9475239230655,286.07658190993743L145.41146516567463,281.8372086308075L149.55182779320438,280.5042956582187L154.25874340977182,283.45333134852206L158.38776310848215,283.5263199204849L163.19165971423612,283.461546520146L168.19883675639883,286.55093252766807L173.58807899578375,275.65280939563826L179.7040936198909,275.19503478346707L185.9544935405754,276.0539650616701L191.826233247123,270.642490886484L203.4337616606647,227.45191441554223L214.2786706673115,178.5573265476984L225.24539304905753,151.4998733733097L235.9419432809524,128.46245849872778L246.3866847019345,114.21696617829286L257.2126411265873,98.76796185269892L267.96417194444444,88.07699504223275L278.3240497387897,86.8163554705812L288.6024520540675,79.31443584153402L298.99948583194447,76.35865504541688L309.61226674573413,69.67251152651615L319.9735966033234,69.72342264002519L331.21066369895834,71.98854983304194L343.43224230069444,68.07821730966961L355.3154522866568,65.6724620321754L366.6530189942957,61.39203639040979L377.3783032429067,70.17711579751897L387.81971123174606,59.875043317394656L398.46671033154763,52.71646187462589L408.73781024181545,51.30556210120666L418.9042816298116,53.67435784497804L429.0681435128472,47.80846499992676L439.2682396349207,50.63683826687279L449.33877804459325,45.98591570229433L459.4268464351686,52.38944358932835L469.7762567475198,48.54706368031941L480.0041651418155,54.30810039750136L490.15207537356144,56.37638958401677L500.21707910739093,54.267332316081635L510.46552683105165,60.11993887463059L520.6173386936011,57.06508499645372L530.805851980754,50.93255406774836L541.0330238212301,48.93524190281463L551.3611961303076,57.11902861890043L561.7012164336807,55.3693810289911L571.9518022678573,54.051891922105035L582.940970601141,47.406345390765985L593.7396156101687,48.95837990253502L603.8906698745039,59.04376540070356L614.321378893006,51.50862098625644L624.1111219423116,50.413455539294105L634.6515353911211,53.255051167814784L645.2437938110614,55.67385165215072L655.4770727349207,56.45034179878555L665.7302470296627,57.40646322841828L675.9708788650795,58.63990585968125L686.1243195637898,60.3923819599463L696.1983345074901,54.614292915935096L706.2500886903274,50.028496990367685L716.2996584649802,46.04114335165311L726.3434368221726,47.79934769502815L736.3747526887402,46.938121638486066L746.551565292361,42.38312184917293L756.6131135365576,40.44282202784641L766.5884134329366,48.64038844623808L776.4977896580358,52.41020791362899L786.4878837639881,50.31142318624967L796.2459507901785,49.47790475117385L805.7826686625497,41.607673403186844L815.9400993785218,39.77980978284076L826.0151244531746,38.20401689406508L836.1125618083333,39.97114496824901L846.3208063200892,39.90478137372595L856.3529260825397,35.71776382469334L866.5845761702382,33.492630126137655L876.7108022575396,32.63241891983702L886.8231011643354,40.52927680566057L896.8913078550596,41.448199485267075L907.0618071402282,48.89957333476823L917.110059535764,54.079021172949446L927.0995938608136,50.06474366022884L937.0995409524305,47.74333285232619L947.0888816690476,48.56114694440507L957.005539254762,49.89151166060048L967.0683417448909,51.778895104995144L977.2458866934526,53.1523270160383" style="fill: none;" fill="none"></path></g><g><path stroke="rgb(0, 153, 136)" stroke-width="2px" d="M82.18124914613097,382.16990674393514L85.43377821746033,372.7788030605982L88.24830609007937,359.2395067327474L91.25370241502976,355.4706067498353L94.2377218437004,344.2159163662681L97.29010609345238,338.10869596878666L100.10487808105161,332.2697398397302L103.02700594449405,324.0599980062499L105.97193330530754,315.2458820309233L108.54410130029763,311.59790366462533L111.03709607301589,314.56980936374504L113.65386134955357,311.4463779506971L116.26765515753968,308.79396239973295L119.04530062375991,308.11936187126855L121.80821922247024,304.6712689141558L124.65253333154763,309.3202406580491L127.76856845793651,307.1914276393091L130.21728582390872,306.67364299904756L132.54176550049604,308.33257361743216L135.17142678219247,304.1552005280671L137.53560039632936,297.904203930224L139.7945941250496,296.9003130782302L142.01261020813493,298.21830388631355L148.38828320243059,253.6254197522916L154.60328645099207,208.22271748427337L160.7304419777282,174.41688197314184L166.7762567095238,145.8971209672723L172.93824491860119,126.43349361163037L178.96406747529764,106.93485036980077L185.00496623645836,93.22421300662045L190.97045030426588,78.15646526538102L196.77307180039685,73.8327392610263L202.536289771627,71.99909776112482L208.23190893774802,65.0222304200397L214.03705155238097,67.5314777967808L219.75221254355162,62.942360662912826L225.881981784127,56.67235879901608L232.19375557792662,57.497841697863734L237.99824581631944,54.30041090108729L244.20298360907745,51.833633799902294L250.02615706121034,52.1378749011155L256.21610485327386,47.48408557085203L262.06517553769845,45.42540686769558L267.81532493973214,42.7093037689617L273.61782016949405,41.33127066636229L279.25745703645833,40.84026873792586L284.6749282270833,40.629406146317294L290.06362331220237,38.58527544264892L295.6380057196429,42.98497719245251L301.21280901498017,47.8302392404048L306.9422212703373,47.37411021237089L312.6044177285715,43.29858927156819L318.3143260387897,44.89078984395545L324.5236010030754,40.35308559975387L330.1755698854166,42.983159829625244L335.97703393983136,43.49716132250353L341.80579678323414,40.45211430410675L347.50614672931556,40.67450299275017L353.1662261214286,44.57346798427164L359.05736034226186,40.58713060287976L365.37256858129956,36.12503295939184L371.2680842451389,41.678148828750864L377.3945705601191,39.4621694104707L383.2615836955853,41.61471669774248L389.6276183570437,35.660868960029006L395.3471818356151,32.9772029861246L400.7524304417163,37.16907211210931L406.14144961051585,43.162085271278556L411.58945200917657,45.29160460019071L417.06552763055555,37.819462228917764L422.45184049017854,36.88977115696886L427.79981467127976,33.61897719708808L433.8583612619544,38.088824276970136L439.6580491694445,37.38900876334069L445.4303078126984,39.61668505841945L451.18218706398807,38.432947770204876L458.2307672099702,34.520212206510735L465.8225368578373,35.68147961692095L473.86370955753966,34.0634132170444L481.17265095649805,37.347619029507854L488.4195661061012,35.670182688609295L495.2168298800099,37.44417921517818L502.2680784552579,36.473579787102544L508.94969907063495,35.240575231842456L515.7903353423116,31.495459221441852L522.6028226314485,35.5050873891348L529.4924081655258,32.50401907776799L536.471899563244,33.90444434651746L543.4661683350199,26.362168699318293L549.0597769015873,30.70133780825984L554.7991768267361,24.012524624996466L560.4720638375497,32.18928123732394L566.0644602469742,27.439490039467774L571.6340950389385,24.12327036817066L577.3497653044643,25.562238535637775L583.198835988889,20.73875696739858L588.7758826167163,27.305849190242885L594.2152778578869,40.518366977982446L599.7871559823413,34.937795618422506" style="fill: none;" fill="none"></path></g><g><path stroke="rgb(204, 51, 17)" stroke-width="2px" d="M77.01595714776786,407.6978207454083L78.16687089275794,377.5819958874157L79.27481619236111,355.5701029977814L80.1867918783234,339.09830204473417L81.09455447643849,328.62053753082665L82.14501069821429,315.4419668679485L83.0081844325397,312.49638626253534L83.88794535887897,305.90762197424334L84.9135102704365,302.16504691153443L85.92756389801586,291.31641604484355L86.92221038467261,285.73089082697356L87.77223137222222,287.1550140649793L88.60005894097222,288.54990504717273L89.4147379718254,286.8344434985614L90.22960219335317,286.75174500191514L91.19081755436508,286.0913842950715L92.16149026641867,282.90717549814724L92.97469618963294,287.7987207396138L93.79112611413692,284.2469733700628L94.6125646046131,281.1858136602236L95.40811007167659,279.11544077150677L96.21861810347224,278.79462883170663L97.04031754444443,282.8641936091894L97.8465661907242,279.47266757124265L100.29185332033731,240.15653416992714L102.70556964880953,201.8702380610671L105.09295102157739,163.05374977797175L107.47487347832342,136.9889702473283L109.68679089578374,119.24094778577658L111.90304766746034,112.07265753005044L114.28144308363096,95.79109757575927L116.56009227713292,83.38462280058668L118.76258601458333,78.68465967316459L121.17905074102184,74.78881027759877L123.47238471324404,66.75129533143671L125.89035621835316,62.60609247701115L128.19503311939485,67.3100482782551L130.4848484687996,65.2998428395803L132.793140796875,63.85035202615894L135.04918831031748,60.59407087132502L137.2859886202381,53.0512223205339L139.5394350464782,50.392545244007835L141.80884575064485,50.97803393666711L144.04791885520837,53.29515569034343L146.4813579905258,45.134538415299296L148.7521281625992,41.21021132646805L150.9802203019345,41.36998754131445L153.41035546726192,43.22567742700479L155.66158802316468,49.377749738952076L157.84876565004961,44.9738395558743L160.0825355671131,47.287990400019865L162.2907575888393,50.6136956386764L164.50489308551587,51.29577513772327L166.7421016566964,51.301387931335505L168.9368931456349,46.46019796456414L171.11346018864091,46.77769141152819L173.3050150496528,47.73794391605463L175.49739905982142,49.09282652648204L177.66829674285717,46.35152337617844L179.83654283214287,48.59375051061622L182.04311918219247,48.94094562173068L184.19702562083336,50.30155041003334L186.6712992999008,50.912059105539846L189.14963033829366,45.61129119223627L191.49112230367066,45.13449713126566L193.76383276894845,42.28879936060785L196.01808309107145,40.8744656772702L198.2096589964782,42.88007381744923L200.4161048712798,40.54831940643625L203.44233093824406,36.181204001382675L206.58960857321432,38.31559548394414L209.77058670208336,34.76658044824909L212.8937179984127,38.99792281728953L215.94468806483133,42.57050523723334L219.42151250525797,34.98066686132649L222.69328036235117,31.27567762457782L225.93772838606148,31.20510317279956L229.1626261669643,32.85698119040753L232.56204511428572,28.902425713756305L235.73005147817463,29.918438212524936L238.91802897276787,33.616459188730154L242.06438486324407,36.22512549035003L245.33037392951385,35.45935152692955L248.568222431002,39.57888464166741L251.99869869623015,39.99653129597913L255.49727041428574,45.704132537963524L259.24590846736106,44.41774183566728L262.83375471721234,45.44884003433787L266.0131166365576,40.32667580385937L269.1558571,36.422149963020985L272.40666473983134,36.40815514733757L275.89941557827376,38.18669418341133L279.38972105803566,38.36183290389908L282.71323708204363,41.85509865705811L286.0364669022818,37.43803771272084L289.2985122489584,36.18401968440293L292.62736092261906,36.57803864455746L295.9235276510913,37.31485366330459L299.2674020226687,35.84315972033687L302.53835335724204,38.78966191115104" style="fill: none;" fill="none"></path></g></g></g></g><g opacity="0.2"><g><g><g><path stroke="rgb(238, 51, 119)" stroke-width="2px" d="M75.75982142857143,370.26728045940393L81.32206542906746,334.35366851091385L85.97505688829366,341.62136864662165L90.33458426145835,342.27381598949427L95.08213239558533,340.45935523509974L100.36355157356152,314.1113723516464L105.76904850352182,305.241561949253L110.50567880560516,333.18686735630035L115.24540263373017,305.6212018132209L119.87405414588295,326.1064524650573L124.60822225376985,309.89261966943735L128.8839634733135,293.69934600591654L132.99273425530754,282.25316655635834L137.10982599102184,285.8393738865852L140.9475239230655,276.1318023204803L145.41146516567463,275.4811386466026L149.55182779320438,278.5054902434349L154.25874340977182,287.876136124134L158.38776310848215,283.6357916593551L163.19165971423612,283.3643923401832L168.19883675639883,291.1848421096802L173.58807899578375,259.30598330497736L179.7040936198909,274.5083819031715L185.9544935405754,277.34235030412674L191.826233247123,262.52531808614725L203.4337616606647,162.6662338972091L214.2786706673115,105.2155698537826L225.24539304905753,110.91373515129085L235.9419432809524,93.90635740756983L246.3866847019345,92.84873557090755L257.2126411265873,75.59446048736565L267.96417194444444,72.04054695367806L278.3240497387897,84.92539626359934L288.6024520540675,68.0615569353103L298.99948583194447,71.92498397827143L309.61226674573413,59.64329642057413L319.9735966033234,69.79978930950159L331.21066369895834,75.38624060153955L343.43224230069444,62.21271854639046L355.3154522866568,62.063829123973804L366.6530189942957,54.971397936344076L377.3783032429067,83.35473489761347L387.81971123174606,44.42193460464472L398.46671033154763,41.978589713573385L408.73781024181545,49.189212441444326L418.9042816298116,57.22755146026604L429.0681435128472,39.00962573289864L439.2682396349207,54.87939816713329L449.33877804459325,39.009531855583134L459.4268464351686,61.99473541975014L469.7762567475198,42.7834938168525L480.0041651418155,62.94965547323221L490.15207537356144,59.47882336378092L500.21707910739093,51.1037464141845L510.46552683105165,68.89884871244425L520.6173386936011,52.48280417919153L530.805851980754,41.733757674694004L541.0330238212301,45.93927365541454L551.3611961303076,69.39470869302745L561.7012164336807,52.74490964412685L571.9518022678573,52.0756582617759L582.940970601141,37.43802559375757L593.7396156101687,51.28643167018885L603.8906698745039,74.17184364795679L614.321378893006,40.20590436458582L624.1111219423116,48.77070736885064L634.6515353911211,57.51744461059566L645.2437938110614,59.30205237865441L655.4770727349207,57.61507701873772L665.7302470296627,58.84064537286753L675.9708788650795,60.49006980657573L686.1243195637898,63.02109611034389L696.1983345074901,45.94715934991832L706.2500886903274,43.14980310201639L716.2996584649802,40.06011289358132L726.3434368221726,50.436654210090595L736.3747526887402,45.64628255367272L746.551565292361,35.55062216520302L756.6131135365576,37.53237229585642L766.5884134329366,60.93673807382579L776.4977896580358,58.06493711471553L786.4878837639881,47.16324609518047L796.2459507901785,48.227627098560276L805.7826686625497,29.80232638120647L815.9400993785218,37.03801435232158L826.0151244531746,35.840327560901585L836.1125618083333,42.62183707952492L846.3208063200892,39.80523598194115L856.3529260825397,29.437237501144338L866.5845761702382,30.154929578304248L876.7108022575396,31.342102110385838L886.8231011643354,52.37456363439556L896.8913078550596,42.82658350467675L907.0618071402282,60.07663410902019L917.110059535764,61.8481929302215L927.0995938608136,44.04332739114757L937.0995409524305,44.26121664047234L947.0888816690476,49.78786808252329L957.005539254762,51.887058734893756L967.0683417448909,54.609970271587315L977.2458866934526,55.21247488260262" style="fill: none;" fill="none"></path></g><g><path stroke="rgb(0, 153, 136)" stroke-width="2px" d="M78.99692074960318,383.3916108012199L82.18124914613097,369.22993612289423L85.43377821746033,361.73486512899393L88.24830609007937,341.5626014471054L91.25370241502976,350.25686126947403L94.2377218437004,328.12152904272074L97.29010609345238,329.2043099999428L100.10487808105161,323.65841370821L103.02700594449405,311.86948817968363L105.97193330530754,302.1046514511108L108.54410130029763,306.1457882523536L111.03709607301589,319.01796412467957L113.65386134955357,306.76734995841974L116.26765515753968,304.8184568881988L119.04530062375991,307.1079368591308L121.80821922247024,299.50058859586716L124.65253333154763,316.29251790046686L127.76856845793651,303.99853241443634L130.21728582390872,305.8970133662224L132.54176550049604,310.8208785653114L135.17142678219247,297.88927835226053L137.53560039632936,288.52783244848246L139.7945941250496,295.3944886922836L142.01261020813493,300.1952807307243L148.38828320243059,186.73628371953959L154.60328645099207,140.11878025531763L160.7304419777282,123.70818060636513L166.7762567095238,103.11750572919838L172.93824491860119,97.23806333541864L178.96406747529764,77.68689197301859L185.00496623645836,72.65825968980785L190.97045030426588,55.5548454523086L196.77307180039685,67.34715056419365L202.536289771627,69.24863559007639L208.23190893774802,54.55692958831783L214.03705155238097,71.29534882307046L219.75221254355162,56.058685004711094L225.881981784127,47.267356038093496L232.19375557792662,58.73606604337688L237.99824581631944,49.50426471233362L244.20298360907745,48.13346815109249L250.02615706121034,52.59423655271526L256.21610485327386,40.503401577472616L262.06517553769845,42.337388813495565L267.81532493973214,38.63514912128444L273.61782016949405,39.264221012592245L279.25745703645833,40.103765845298696L284.6749282270833,40.31311225891109L290.06362331220237,35.51907938718789L295.6380057196429,49.58452981710428L301.21280901498017,55.09813231229775L306.9422212703373,46.68991667032236L312.6044177285715,37.18530786037441L318.3143260387897,47.279090702533665L324.5236010030754,33.54652923345559L330.1755698854166,46.928271174430776L335.97703393983136,44.26816356182093L341.80579678323414,35.88454377651209L347.50614672931556,41.0080860257148L353.1662261214286,50.42191547155373L359.05736034226186,34.60762453079218L365.37256858129956,29.431886494159627L371.2680842451389,50.007822632789555L377.3945705601191,36.138200283050494L383.2615836955853,44.84353762865061L389.6276183570437,26.730097353458348L395.3471818356151,28.951704025268484L400.7524304417163,43.456875801086355L406.14144961051585,52.1516050100326L411.58945200917657,48.48588359355921L417.06552763055555,26.611248672008458L422.45184049017854,35.49523454904552L427.79981467127976,28.71278625726694L433.8583612619544,44.79359489679332L439.6580491694445,36.33928549289699L445.4303078126984,42.958199501037555L451.18218706398807,36.65734183788294L458.2307672099702,28.651108860969487L465.8225368578373,37.42338073253626L473.86370955753966,31.63631361722942L481.17265095649805,42.27392774820322L488.4195661061012,33.15402817726131L495.2168298800099,40.105174005031515L502.2680784552579,35.01768064498896L508.94969907063495,33.39106839895241L515.7903353423116,25.877785205841022L522.6028226314485,41.51952964067452L529.4924081655258,28.00241661071773L536.471899563244,36.00508224964136L543.4661683350199,15.048755228519397L549.0597769015873,37.210091471672015L554.7991768267361,13.979304850101402L560.4720638375497,44.45441615581505L566.0644602469742,20.314803242683354L571.6340950389385,19.148940861225057L577.3497653044643,27.72069078683846L583.198835988889,13.503534615039769L588.7758826167163,37.15648752450936L594.2152778578869,60.33714365959163L599.7871559823413,26.566938579082446" style="fill: none;" fill="none"></path></g><g><path stroke="rgb(204, 51, 17)" stroke-width="2px" d="M77.01595714776786,378.669487953186L78.16687089275794,348.6708040237426L79.27481619236111,329.6841169595718L80.1867918783234,317.59271872043604L81.09455447643849,314.12601721286774L82.14501069821429,296.59639996290207L83.0081844325397,308.2017014622688L83.88794535887897,296.19047445058817L84.9135102704365,296.6077591180801L85.92756389801586,275.1418660283088L86.92221038467261,277.3829991817474L87.77223137222222,289.2865489125251L88.60005894097222,290.63950878381723L89.4147379718254,284.2632676362991L90.22960219335317,286.6277555823326L91.19081755436508,285.10112267732615L92.16149026641867,278.13167077302927L92.97469618963294,295.1352934241295L93.79112611413692,278.91967695951456L94.6125646046131,276.5942419767379L95.40811007167659,276.0099495649338L96.21861810347224,278.31341725587845L97.04031754444443,288.96849256753916L97.8465661907242,274.38540261983866L100.29185332033731,181.182501733303L102.70556964880953,144.44089186191556L105.09295102157739,104.82907694578167L107.47487347832342,97.89182496070855L109.68679089578374,92.61892390251155L111.90304766746034,101.32022452354427L114.28144308363096,71.36876088380808L116.56009227713292,64.77491211891169L118.76258601458333,71.63471531867974L121.17905074102184,68.9450363516807L123.47238471324404,54.69502311944956L125.89035621835316,56.388288259506155L128.19503311939485,74.3659819364547L130.4848484687996,62.28453469276421L132.793140796875,61.67611581087107L135.04918831031748,55.70964914560314L137.2859886202381,41.73694950342171L139.5394350464782,46.404529631137805L141.80884575064485,51.85626697540276L144.04791885520837,56.77083832025524L146.4813579905258,32.893612504005375L148.7521281625992,35.323720693588214L150.9802203019345,41.60965186357491L153.41035546726192,46.00921225547785L155.66158802316468,58.60585820674889L157.84876565004961,38.36797428131098L160.0825355671131,50.75921666622156L162.2907575888393,55.60225349664681L164.50489308551587,52.31889438629145L166.7421016566964,51.309807121753636L168.9368931456349,39.198413014411884L171.11346018864091,47.25393158197399L173.3050150496528,49.17832267284389L175.49739905982142,51.12515044212334L177.66829674285717,42.23956865072245L179.83654283214287,51.95709121227257L182.04311918219247,49.4617382884025L184.19702562083336,52.34245759248729L186.6712992999008,51.827822148799825L189.14963033829366,37.66013932228084L191.49112230367066,44.41930603981014L193.76383276894845,38.02025270462029L196.01808309107145,38.752965152263585L198.2096589964782,45.88848602771752L200.4161048712798,37.05068778991695L203.44233093824406,29.6305308938026L206.58960857321432,41.5171827077865L209.77058670208336,29.44305789470667L212.8937179984127,45.34493637084954L215.94468806483133,47.929378867149296L219.42151250525797,23.595909297466207L222.69328036235117,25.7181937694549L225.93772838606148,31.099241495132404L229.1626261669643,35.334798216819706L232.56204511428572,22.97059249877924L235.73005147817463,31.44245696067803L238.91802897276787,39.16349065303798L242.06438486324407,40.13812494277947L245.33037392951385,34.31069058179851L248.568222431002,45.758184313774066L251.99869869623015,40.62300127744669L255.49727041428574,54.265534400939885L259.24590846736106,42.488155782222705L262.83375471721234,46.995487332344L266.0131166365576,32.643429458141284L269.1558571,30.565361201763096L272.40666473983134,36.387162923812824L275.89941557827376,40.85450273752207L279.38972105803566,38.62454098463053L282.71323708204363,47.0949972867965L286.0364669022818,30.812446296214986L289.2985122489584,34.30299264192574L292.62736092261906,37.16906708478922L295.9235276510913,38.42007619142527L299.2674020226687,33.63561880588527L302.53835335724204,43.209415197372394" style="fill: none;" fill="none"></path></g></g></g></g></g></g><g transform="translate(51, 378)" clip-path="url(#clip_1)"><clipPath id="clip_1"><rect width="1060" height="22"></rect></clipPath><g><g><line x1="0" y1="0" x2="0" y2="5" style="visibility: inherit;" fill="rgb(0, 0, 0)" stroke="rgb(204, 204, 204)" stroke-width="1px"></line><line x1="75.75982142857143" y1="0" x2="75.75982142857143" y2="5" style="visibility: inherit;" fill="rgb(0, 0, 0)" stroke="rgb(204, 204, 204)" stroke-width="1px"></line><line x1="151.51964285714286" y1="0" x2="151.51964285714286" y2="5" style="visibility: inherit;" fill="rgb(0, 0, 0)" stroke="rgb(204, 204, 204)" stroke-width="1px"></line><line x1="227.27946428571428" y1="0" x2="227.27946428571428" y2="5" style="visibility: inherit;" fill="rgb(0, 0, 0)" stroke="rgb(204, 204, 204)" stroke-width="1px"></line><line x1="303.0392857142857" y1="0" x2="303.0392857142857" y2="5" style="visibility: inherit;" fill="rgb(0, 0, 0)" stroke="rgb(204, 204, 204)" stroke-width="1px"></line><line x1="378.79910714285717" y1="0" x2="378.79910714285717" y2="5" style="visibility: inherit;" fill="rgb(0, 0, 0)" stroke="rgb(204, 204, 204)" stroke-width="1px"></line><line x1="454.55892857142857" y1="0" x2="454.55892857142857" y2="5" style="visibility: inherit;" fill="rgb(0, 0, 0)" stroke="rgb(204, 204, 204)" stroke-width="1px"></line><line x1="530.31875" y1="0" x2="530.31875" y2="5" style="visibility: inherit;" fill="rgb(0, 0, 0)" stroke="rgb(204, 204, 204)" stroke-width="1px"></line><line x1="606.0785714285714" y1="0" x2="606.0785714285714" y2="5" style="visibility: inherit;" fill="rgb(0, 0, 0)" stroke="rgb(204, 204, 204)" stroke-width="1px"></line><line x1="681.8383928571429" y1="0" x2="681.8383928571429" y2="5" style="visibility: inherit;" fill="rgb(0, 0, 0)" stroke="rgb(204, 204, 204)" stroke-width="1px"></line><line x1="757.5982142857143" y1="0" x2="757.5982142857143" y2="5" style="visibility: inherit;" fill="rgb(0, 0, 0)" stroke="rgb(204, 204, 204)" stroke-width="1px"></line><line x1="833.3580357142857" y1="0" x2="833.3580357142857" y2="5" style="visibility: inherit;" fill="rgb(0, 0, 0)" stroke="rgb(204, 204, 204)" stroke-width="1px"></line><line x1="909.1178571428571" y1="0" x2="909.1178571428571" y2="5" style="visibility: inherit;" fill="rgb(0, 0, 0)" stroke="rgb(204, 204, 204)" stroke-width="1px"></line><line x1="984.8776785714286" y1="0" x2="984.8776785714286" y2="5" style="visibility: inherit;" fill="rgb(0, 0, 0)" stroke="rgb(204, 204, 204)" stroke-width="1px"></line><line x1="1060.6375" y1="0" x2="1060.6375" y2="5" style="visibility: inherit;" fill="rgb(0, 0, 0)" stroke="rgb(204, 204, 204)" stroke-width="1px"></line></g><g transform="translate(0, 8)"><text x="0" y="0" dx="0em" dy="0.95em" style="text-anchor: middle; visibility: hidden; font-family: Roboto, sans-serif; font-size: 12px; font-weight: 200;" fill="rgb(50, 49, 63)" stroke="none" stroke-width="1px">-5</text><text x="75.75982142857143" y="0" dx="0em" dy="0.95em" style="text-anchor: middle; visibility: inherit; font-family: Roboto, sans-serif; font-size: 12px; font-weight: 200;" fill="rgb(50, 49, 63)" stroke="none" stroke-width="1px">0</text><text x="151.51964285714286" y="0" dx="0em" dy="0.95em" style="text-anchor: middle; visibility: inherit; font-family: Roboto, sans-serif; font-size: 12px; font-weight: 200;" fill="rgb(50, 49, 63)" stroke="none" stroke-width="1px">5</text><text x="227.27946428571428" y="0" dx="0em" dy="0.95em" style="text-anchor: middle; visibility: inherit; font-family: Roboto, sans-serif; font-size: 12px; font-weight: 200;" fill="rgb(50, 49, 63)" stroke="none" stroke-width="1px">10</text><text x="303.0392857142857" y="0" dx="0em" dy="0.95em" style="text-anchor: middle; visibility: inherit; font-family: Roboto, sans-serif; font-size: 12px; font-weight: 200;" fill="rgb(50, 49, 63)" stroke="none" stroke-width="1px">15</text><text x="378.79910714285717" y="0" dx="0em" dy="0.95em" style="text-anchor: middle; visibility: inherit; font-family: Roboto, sans-serif; font-size: 12px; font-weight: 200;" fill="rgb(50, 49, 63)" stroke="none" stroke-width="1px">20</text><text x="454.55892857142857" y="0" dx="0em" dy="0.95em" style="text-anchor: middle; visibility: inherit; font-family: Roboto, sans-serif; font-size: 12px; font-weight: 200;" fill="rgb(50, 49, 63)" stroke="none" stroke-width="1px">25</text><text x="530.31875" y="0" dx="0em" dy="0.95em" style="text-anchor: middle; visibility: inherit; font-family: Roboto, sans-serif; font-size: 12px; font-weight: 200;" fill="rgb(50, 49, 63)" stroke="none" stroke-width="1px">30</text><text x="606.0785714285714" y="0" dx="0em" dy="0.95em" style="text-anchor: middle; visibility: inherit; font-family: Roboto, sans-serif; font-size: 12px; font-weight: 200;" fill="rgb(50, 49, 63)" stroke="none" stroke-width="1px">35</text><text x="681.8383928571429" y="0" dx="0em" dy="0.95em" style="text-anchor: middle; visibility: inherit; font-family: Roboto, sans-serif; font-size: 12px; font-weight: 200;" fill="rgb(50, 49, 63)" stroke="none" stroke-width="1px">40</text><text x="757.5982142857143" y="0" dx="0em" dy="0.95em" style="text-anchor: middle; visibility: inherit; font-family: Roboto, sans-serif; font-size: 12px; font-weight: 200;" fill="rgb(50, 49, 63)" stroke="none" stroke-width="1px">45</text><text x="833.3580357142857" y="0" dx="0em" dy="0.95em" style="text-anchor: middle; visibility: inherit; font-family: Roboto, sans-serif; font-size: 12px; font-weight: 200;" fill="rgb(50, 49, 63)" stroke="none" stroke-width="1px">50</text><text x="909.1178571428571" y="0" dx="0em" dy="0.95em" style="text-anchor: middle; visibility: inherit; font-family: Roboto, sans-serif; font-size: 12px; font-weight: 200;" fill="rgb(50, 49, 63)" stroke="none" stroke-width="1px">55</text><text x="984.8776785714286" y="0" dx="0em" dy="0.95em" style="text-anchor: middle; visibility: inherit; font-family: Roboto, sans-serif; font-size: 12px; font-weight: 200;" fill="rgb(50, 49, 63)" stroke="none" stroke-width="1px">60</text><text x="1060.6375" y="0" dx="0em" dy="0.95em" style="text-anchor: middle; visibility: hidden; font-family: Roboto, sans-serif; font-size: 12px; font-weight: 200;" fill="rgb(50, 49, 63)" stroke="none" stroke-width="1px">65</text></g><line x1="0" y1="0" x2="1060.6375" y2="0" fill="rgb(0, 0, 0)" stroke="rgb(204, 204, 204)" stroke-width="1px"></line></g></g></g></g></svg>