<svg viewBox="0 0 1112.2000732421875 400" xmlns="http://www.w3.org/2000/svg"><g><g><g><g><g><line x1="61.953125" y1="378" x2="56.953125" y2="378" style="visibility: inherit;" fill="rgb(0, 0, 0)" stroke="rgb(204, 204, 204)" stroke-width="1px"></line><line x1="61.953125" y1="348.92307692307685" x2="56.953125" y2="348.92307692307685" style="visibility: inherit;" fill="rgb(0, 0, 0)" stroke="rgb(204, 204, 204)" stroke-width="1px"></line><line x1="61.953125" y1="319.8461538461544" x2="56.953125" y2="319.8461538461544" style="visibility: inherit;" fill="rgb(0, 0, 0)" stroke="rgb(204, 204, 204)" stroke-width="1px"></line><line x1="61.953125" y1="290.7692307692312" x2="56.953125" y2="290.7692307692312" style="visibility: inherit;" fill="rgb(0, 0, 0)" stroke="rgb(204, 204, 204)" stroke-width="1px"></line><line x1="61.953125" y1="261.69230769230813" x2="56.953125" y2="261.69230769230813" style="visibility: inherit;" fill="rgb(0, 0, 0)" stroke="rgb(204, 204, 204)" stroke-width="1px"></line><line x1="61.953125" y1="232.615384615385" x2="56.953125" y2="232.615384615385" style="visibility: inherit;" fill="rgb(0, 0, 0)" stroke="rgb(204, 204, 204)" stroke-width="1px"></line><line x1="61.953125" y1="203.53846153846192" x2="56.953125" y2="203.53846153846192" style="visibility: inherit;" fill="rgb(0, 0, 0)" stroke="rgb(204, 204, 204)" stroke-width="1px"></line><line x1="61.953125" y1="174.46153846153877" x2="56.953125" y2="174.46153846153877" style="visibility: inherit;" fill="rgb(0, 0, 0)" stroke="rgb(204, 204, 204)" stroke-width="1px"></line><line x1="61.953125" y1="145.3846153846156" x2="56.953125" y2="145.3846153846156" style="visibility: inherit;" fill="rgb(0, 0, 0)" stroke="rgb(204, 204, 204)" stroke-width="1px"></line><line x1="61.953125" y1="116.30769230769252" x2="56.953125" y2="116.30769230769252" style="visibility: inherit;" fill="rgb(0, 0, 0)" stroke="rgb(204, 204, 204)" stroke-width="1px"></line><line x1="61.953125" y1="87.23076923076938" x2="56.953125" y2="87.23076923076938" style="visibility: inherit;" fill="rgb(0, 0, 0)" stroke="rgb(204, 204, 204)" stroke-width="1px"></line><line x1="61.953125" y1="58.15384615384624" x2="56.953125" y2="58.15384615384624" style="visibility: inherit;" fill="rgb(0, 0, 0)" stroke="rgb(204, 204, 204)" stroke-width="1px"></line><line x1="61.953125" y1="29.07692307692314" x2="56.953125" y2="29.07692307692314" style="visibility: inherit;" fill="rgb(0, 0, 0)" stroke="rgb(204, 204, 204)" stroke-width="1px"></line><line x1="61.953125" y1="0" x2="56.953125" y2="0" style="visibility: inherit;" fill="rgb(0, 0, 0)" stroke="rgb(204, 204, 204)" stroke-width="1px"></line></g><g transform="translate(51.953125, 0)"><text x="0" y="378" dx="0em" dy="0.3em" style="text-anchor: end; visibility: hidden; font-family: Roboto, sans-serif; font-size: 12px; font-weight: 200;" fill="rgb(50, 49, 63)" stroke="none" stroke-width="1px">0.93</text><text x="0" y="348.92307692307685" dx="0em" dy="0.3em" style="text-anchor: end; visibility: inherit; font-family: Roboto, sans-serif; font-size: 12px; font-weight: 200;" fill="rgb(50, 49, 63)" stroke="none" stroke-width="1px">0.935</text><text x="0" y="319.8461538461544" dx="0em" dy="0.3em" style="text-anchor: end; visibility: inherit; font-family: Roboto, sans-serif; font-size: 12px; font-weight: 200;" fill="rgb(50, 49, 63)" stroke="none" stroke-width="1px">0.94</text><text x="0" y="290.7692307692312" dx="0em" dy="0.3em" style="text-anchor: end; visibility: inherit; font-family: Roboto, sans-serif; font-size: 12px; font-weight: 200;" fill="rgb(50, 49, 63)" stroke="none" stroke-width="1px">0.945</text><text x="0" y="261.69230769230813" dx="0em" dy="0.3em" style="text-anchor: end; visibility: inherit; font-family: Roboto, sans-serif; font-size: 12px; font-weight: 200;" fill="rgb(50, 49, 63)" stroke="none" stroke-width="1px">0.95</text><text x="0" y="232.615384615385" dx="0em" dy="0.3em" style="text-anchor: end; visibility: inherit; font-family: Roboto, sans-serif; font-size: 12px; font-weight: 200;" fill="rgb(50, 49, 63)" stroke="none" stroke-width="1px">0.955</text><text x="0" y="203.53846153846192" dx="0em" dy="0.3em" style="text-anchor: end; visibility: inherit; font-family: Roboto, sans-serif; font-size: 12px; font-weight: 200;" fill="rgb(50, 49, 63)" stroke="none" stroke-width="1px">0.96</text><text x="0" y="174.46153846153877" dx="0em" dy="0.3em" style="text-anchor: end; visibility: inherit; font-family: Roboto, sans-serif; font-size: 12px; font-weight: 200;" fill="rgb(50, 49, 63)" stroke="none" stroke-width="1px">0.965</text><text x="0" y="145.3846153846156" dx="0em" dy="0.3em" style="text-anchor: end; visibility: inherit; font-family: Roboto, sans-serif; font-size: 12px; font-weight: 200;" fill="rgb(50, 49, 63)" stroke="none" stroke-width="1px">0.97</text><text x="0" y="116.30769230769252" dx="0em" dy="0.3em" style="text-anchor: end; visibility: inherit; font-family: Roboto, sans-serif; font-size: 12px; font-weight: 200;" fill="rgb(50, 49, 63)" stroke="none" stroke-width="1px">0.975</text><text x="0" y="87.23076923076938" dx="0em" dy="0.3em" style="text-anchor: end; visibility: inherit; font-family: Roboto, sans-serif; font-size: 12px; font-weight: 200;" fill="rgb(50, 49, 63)" stroke="none" stroke-width="1px">0.98</text><text x="0" y="58.15384615384624" dx="0em" dy="0.3em" style="text-anchor: end; visibility: inherit; font-family: Roboto, sans-serif; font-size: 12px; font-weight: 200;" fill="rgb(50, 49, 63)" stroke="none" stroke-width="1px">0.985</text><text x="0" y="29.07692307692314" dx="0em" dy="0.3em" style="text-anchor: end; visibility: inherit; font-family: Roboto, sans-serif; font-size: 12px; font-weight: 200;" fill="rgb(50, 49, 63)" stroke="none" stroke-width="1px">0.99</text><text x="0" y="0" dx="0em" dy="0.3em" style="text-anchor: end; visibility: hidden; font-family: Roboto, sans-serif; font-size: 12px; font-weight: 200;" fill="rgb(50, 49, 63)" stroke="none" stroke-width="1px">0.995</text></g><line x1="61.953125" y1="0" x2="61.953125" y2="378" fill="rgb(0, 0, 0)" stroke="rgb(204, 204, 204)" stroke-width="1px"></line></g></g><g transform="translate(61, 0)" clip-path="url(#clip_0)"><clipPath id="clip_0"><rect width="1050" height="378"></rect></clipPath><g><g><g><line x1="0" y1="0" x2="0" y2="378" fill="rgb(0, 0, 0)" stroke="rgb(60, 60, 60)" stroke-width="1px" opacity="0.25"></line><line x1="75.01763392857143" y1="0" x2="75.01763392857143" y2="378" fill="rgb(0, 0, 0)" stroke="rgb(60, 60, 60)" stroke-width="1px" opacity="0.25"></line><line x1="150.03526785714286" y1="0" x2="150.03526785714286" y2="378" fill="rgb(0, 0, 0)" stroke="rgb(60, 60, 60)" stroke-width="1px" opacity="0.25"></line><line x1="225.05290178571428" y1="0" x2="225.05290178571428" y2="378" fill="rgb(0, 0, 0)" stroke="rgb(60, 60, 60)" stroke-width="1px" opacity="0.25"></line><line x1="300.0705357142857" y1="0" x2="300.0705357142857" y2="378" fill="rgb(0, 0, 0)" stroke="rgb(60, 60, 60)" stroke-width="1px" opacity="0.25"></line><line x1="375.08816964285717" y1="0" x2="375.08816964285717" y2="378" fill="rgb(0, 0, 0)" stroke="rgb(60, 60, 60)" stroke-width="1px" opacity="0.25"></line><line x1="450.10580357142857" y1="0" x2="450.10580357142857" y2="378" fill="rgb(0, 0, 0)" stroke="rgb(60, 60, 60)" stroke-width="1px" opacity="0.25"></line><line x1="525.1234375" y1="0" x2="525.1234375" y2="378" fill="rgb(0, 0, 0)" stroke="rgb(60, 60, 60)" stroke-width="1px" opacity="0.25"></line><line x1="600.1410714285714" y1="0" x2="600.1410714285714" y2="378" fill="rgb(0, 0, 0)" stroke="rgb(60, 60, 60)" stroke-width="1px" opacity="0.25"></line><line x1="675.1587053571429" y1="0" x2="675.1587053571429" y2="378" fill="rgb(0, 0, 0)" stroke="rgb(60, 60, 60)" stroke-width="1px" opacity="0.25"></line><line x1="750.1763392857143" y1="0" x2="750.1763392857143" y2="378" fill="rgb(0, 0, 0)" stroke="rgb(60, 60, 60)" stroke-width="1px" opacity="0.25"></line><line x1="825.1939732142857" y1="0" x2="825.1939732142857" y2="378" fill="rgb(0, 0, 0)" stroke="rgb(60, 60, 60)" stroke-width="1px" opacity="0.25"></line><line x1="900.2116071428571" y1="0" x2="900.2116071428571" y2="378" fill="rgb(0, 0, 0)" stroke="rgb(60, 60, 60)" stroke-width="1px" opacity="0.25"></line><line x1="975.2292410714286" y1="0" x2="975.2292410714286" y2="378" fill="rgb(0, 0, 0)" stroke="rgb(60, 60, 60)" stroke-width="1px" opacity="0.25"></line><line x1="1050.246875" y1="0" x2="1050.246875" y2="378" fill="rgb(0, 0, 0)" stroke="rgb(60, 60, 60)" stroke-width="1px" opacity="0.25"></line></g><g><line x1="0" y1="378" x2="1050.246875" y2="378" fill="rgb(0, 0, 0)" stroke="rgb(60, 60, 60)" stroke-width="1px" opacity="0.25"></line><line x1="0" y1="348.92307692307685" x2="1050.246875" y2="348.92307692307685" fill="rgb(0, 0, 0)" stroke="rgb(60, 60, 60)" stroke-width="1px" opacity="0.25"></line><line x1="0" y1="319.8461538461544" x2="1050.246875" y2="319.8461538461544" fill="rgb(0, 0, 0)" stroke="rgb(60, 60, 60)" stroke-width="1px" opacity="0.25"></line><line x1="0" y1="290.7692307692312" x2="1050.246875" y2="290.7692307692312" fill="rgb(0, 0, 0)" stroke="rgb(60, 60, 60)" stroke-width="1px" opacity="0.25"></line><line x1="0" y1="261.69230769230813" x2="1050.246875" y2="261.69230769230813" fill="rgb(0, 0, 0)" stroke="rgb(60, 60, 60)" stroke-width="1px" opacity="0.25"></line><line x1="0" y1="232.615384615385" x2="1050.246875" y2="232.615384615385" fill="rgb(0, 0, 0)" stroke="rgb(60, 60, 60)" stroke-width="1px" opacity="0.25"></line><line x1="0" y1="203.53846153846192" x2="1050.246875" y2="203.53846153846192" fill="rgb(0, 0, 0)" stroke="rgb(60, 60, 60)" stroke-width="1px" opacity="0.25"></line><line x1="0" y1="174.46153846153877" x2="1050.246875" y2="174.46153846153877" fill="rgb(0, 0, 0)" stroke="rgb(60, 60, 60)" stroke-width="1px" opacity="0.25"></line><line x1="0" y1="145.3846153846156" x2="1050.246875" y2="145.3846153846156" fill="rgb(0, 0, 0)" stroke="rgb(60, 60, 60)" stroke-width="1px" opacity="0.25"></line><line x1="0" y1="116.30769230769252" x2="1050.246875" y2="116.30769230769252" fill="rgb(0, 0, 0)" stroke="rgb(60, 60, 60)" stroke-width="1px" opacity="0.25"></line><line x1="0" y1="87.23076923076938" x2="1050.246875" y2="87.23076923076938" fill="rgb(0, 0, 0)" stroke="rgb(60, 60, 60)" stroke-width="1px" opacity="0.25"></line><line x1="0" y1="58.15384615384624" x2="1050.246875" y2="58.15384615384624" fill="rgb(0, 0, 0)" stroke="rgb(60, 60, 60)" stroke-width="1px" opacity="0.25"></line><line x1="0" y1="29.07692307692314" x2="1050.246875" y2="29.07692307692314" fill="rgb(0, 0, 0)" stroke="rgb(60, 60, 60)" stroke-width="1px" opacity="0.25"></line><line x1="0" y1="0" x2="1050.246875" y2="0" fill="rgb(0, 0, 0)" stroke="rgb(60, 60, 60)" stroke-width="1px" opacity="0.25"></line></g></g></g><g><g><line x1="0" y1="5786.307692307697" x2="1050.246875" y2="5786.307692307697" fill="rgb(0, 0, 0)" stroke="rgb(153, 153, 153)" stroke-width="1.5px"></line></g></g><g><g><line x1="75.01763392857143" y1="0" x2="75.01763392857143" y2="378" fill="rgb(0, 0, 0)" stroke="rgb(153, 153, 153)" stroke-width="1.5px"></line></g></g><g><g><g><g><g><path stroke="rgb(238, 51, 119)" stroke-width="2px" d="M89.44961386432293,387.6076219939544L94.1506564091518,352.48115437539786L99.38033571733631,327.9439462657057L104.73287307166419,311.89795184065576L109.42310057426835,328.74769744953704L114.11639546457094,342.24431023707325L118.69970200059524,319.2739933572424L123.3874872624504,293.9282269563L127.62134082140378,285.86240935104325L131.68986385047126,285.07789782363085L135.76661798103922,275.00910229645365L139.5667237482639,261.90216790400433L143.9869336128348,259.59643490606L148.08673482760418,258.7183200422164L152.747538747123,258.6964206331367L156.83610815503474,259.6928514763336L161.59293881362848,264.32940356598453L166.55106262228423,285.7893974382311L171.88750869413443,262.31846022012314L177.9436114312004,263.38049219067676L184.13277461262402,258.46476426682614L189.94699132437998,247.43842719100815L201.4408097714534,217.60143614559547L212.1794757095238,187.0790996788091L223.0387575000124,163.71762236332185L233.6305222402654,135.56610915744466L243.97294086827876,125.23777094523417L254.6928398949281,107.93493715330844L265.33904243153523,86.9523683979324L275.5974288066096,92.53590600434016L285.77513788404013,80.74175097788833L296.0703162409102,80.73250437004913L306.5791239809772,68.10679477860211L316.8389523616816,59.52172290519872L327.96593457884427,54.37067981516052L340.06778345184773,51.28005397337846L351.83457856584823,48.920855374225L363.06107584206353,45.99100557166344L373.6812847685144,49.78601112070299L384.02040678828126,50.04372205711195L394.5631016606523,48.17905622729634L404.73357570405506,45.04110298771381L414.80045456264884,54.26402324809414L424.86474531287206,51.21606003991071L434.96491533034475,52.416220702036185L444.9367926908606,49.0978709662862L454.9260324659846,49.12601486657084L465.1740539046379,48.6380781089242L475.30176789670145,48.850139152154696L485.3502632673364,44.434106547315075L495.31666434057536,48.34704860645645L505.46471227907983,48.67552145067392L515.5170710578622,42.3101821847422L525.6057717126364,37.48133242955247L535.7327521989461,37.612822513762005L545.9597436942213,48.29272431927489L556.1984671139137,48.64292687836495L566.3486322167536,50.87234080508214L577.2301400651166,53.21949670717063L587.922999402381,46.55089798251693L597.974608004824,47.093007978493766L608.3031316999751,45.39912023438968L617.9969687032739,44.88761068574335L628.4341179323537,48.61915108950945L638.9226083965649,49.84842913613706L649.0556403053447,52.60514970580346L659.2083685106771,54.76400514541856L669.3486771299479,59.593080093899005L679.4026446202133,58.956763378276776L689.3779686242436,48.983611789548185L699.3312541144842,43.504543934127675L709.2823682609871,43.24604180777066L719.2277560614335,42.586117434140064L729.1607951258061,45.2189627472834L739.2379138914312,43.76986999784798L749.2008933270338,41.89076815255469L759.0784693540551,43.79210698270002L768.8907633689732,44.42808718297191L778.7829886728423,40.77122917018178L788.4454641375124,46.14932218017222L797.8887547464285,49.881001083982525L807.9466773330605,48.08142364374191L817.9230015722098,40.43925420713831L827.9215185280631,44.435667908898495L838.029752941183,48.34798542340227L847.9635921936508,46.152106701335306L858.0950070556548,46.348910111969175L868.1220307124008,46.46699215834901L878.1352677950894,45.52833384011959L888.1048404471851,46.98429259087152L898.1757035756697,47.353044743506544L908.1255132488716,50.603234621982594L918.0171842557788,51.543702353436956L927.9191701873513,46.0502444680922L937.810645314881,42.75416973688583L947.6301535255953,42.79581728942529L957.5943749198041,45.849605758270826L967.6722188558904,39.60498657367066" style="fill: none;" fill="none"></path></g><g><path stroke="rgb(0, 153, 136)" stroke-width="2px" d="M87.3837740935516,392.18527639080804L90.35972779914435,363.1679084383737L93.31451402903026,346.1295334337565L96.33699950589039,324.4081222874309L99.12419217393355,327.92938261965384L102.01769733219247,319.8616856924208L104.93377446297123,309.98592852948224L107.48074399658978,311.6721816115512L109.94931593510665,305.09947062049457L112.54044584923115,297.62494806031015L115.12863340504714,297.68939140238524L117.87906743246529,297.7280380099699L120.61491469773065,297.24631043368646L123.43136841065228,297.96707482473533L126.51687286765873,284.26399445789195L128.941605334437,286.13923446724993L131.24330888157243,301.39927546000865L133.8472084640501,288.3432703955045L136.1882212513641,275.9664722280805L138.42508455690725,274.09339762200057L140.6213716577877,273.4742444216665L146.9345889998512,223.12670683957603L153.0887064432912,185.3461623379063L159.15583260489834,153.08649293509677L165.1424190011905,128.68260978353274L171.24404493911211,108.99219220274163L177.21083501533977,92.12999009161784L183.19255360071924,82.01267025641516L189.09959629916918,72.40851701716826L194.84536775525797,70.17978715309405L200.5521300417039,70.86170305191749L206.19194742516123,64.20360644053928L211.94022363669393,59.703925416722974L217.59939556970485,63.06171671739213L223.6691140073289,63.562060842566304L229.9190498075273,62.34779802148578L235.66668003387898,58.59044039012519L241.81063258792165,53.81191032294285L247.57675882868307,51.4496153820674L253.706062105878,50.537061515881774L259.4978360421503,47.46555235650355L265.1916494514509,48.65144679859174L270.9373042134424,47.343691072458505L276.5216877330729,44.03506079724689L281.8860862088541,49.6219518003605L287.22199048668153,43.88754794056806L292.7417629852679,47.009467246787345L298.2619522484871,52.92106496347462L303.9352399996156,46.371838936287276L309.54196627121775,40.9279726761079L315.19593698160963,44.22407589246594L321.34438225839534,42.668114787140546L326.94098114941715,41.73453812394601L332.68561067041173,40.66956902821373L338.4572715454985,42.554564410280484L344.10177753107644,43.68556163952028L349.7064074765749,42.34500623537369L355.5398245349702,39.01655750380709L361.7931694698661,35.00033452317694L367.6309250480903,32.59060073479949L373.69739688922374,39.221652727678794L379.5069333341518,35.12339165749959L385.81059843082835,31.654788819761055L391.4741338895461,32.09774260619695L396.8264253527406,32.36351487805875L402.1626505393353,45.14313973785124L407.5572852892361,45.743529933878904L412.9797140725074,37.017225589956716L418.3132594625124,34.81038157049833L423.6088375944569,31.46698276756031L429.6080311208954,38.54748194733571L435.35090606278527,39.262158420063194L441.0666162859003,46.253387276159L446.7621425978422,45.40017091080498L453.74167073210566,40.34497186082317L461.25907113399063,31.254113906617725L469.2214636374008,35.89578379126444L476.45880237359876,34.137516491283726L483.63472667348714,34.596886755168896L490.3653963101315,36.891801304763355L497.34756673216765,33.725480803750706L503.9637344535591,33.844842244832684L510.7373516856275,33.41177466123965L517.4831040343378,32.14228791545272L524.3051951608631,31.88541896579568L531.21631138063,33.75045133769208L538.1420602066593,37.393586249909156L543.6808705136781,40.58897474329723L549.3640439218999,35.43896176905525L554.9813560151787,40.930669348232804L560.5189660400545,37.66327092328025L566.0340374335814,37.21716251218266L571.6937136517981,40.48312050066184L577.4854792527778,32.34664928615259L583.0078898714906,36.046481921169345L588.3940017846478,48.36256615934923L593.911290366022,35.05502429010174" style="fill: none;" fill="none"></path></g><g><path stroke="rgb(204, 51, 17)" stroke-width="2px" d="M77.401106696689,389.0893281580333L78.49819791643105,364.5292844866739L79.40123935543156,361.854811376129L80.30010481281002,354.0355400937083L81.3402743189856,337.6392878164152L82.19499189879714,325.01962613413224L83.06613417279267,311.9755600723207L84.08164788328372,297.631278560528L85.08577141635666,284.01394843712285L86.07067376455853,279.416569177045L86.91236328194444,276.15921033000075L87.73208096788194,280.26987051763285L88.53878309433284,281.21916104399486L89.3456644295759,276.73893276743735L90.29746316298363,268.4977493396867L91.25862243004714,268.09766283809097L92.06386588028273,273.4108907630205L92.872293412314,261.45378959494104L93.68568877876983,258.3183434154822L94.4734406173611,258.96126844130276L95.27600843865328,254.29888584567726L96.08965386388888,255.5399451221123L96.88800819474206,253.25562972609117L99.30933986211558,242.79849068334622L101.69941001437252,183.01457933381099L104.06339903590032,140.0770212743657L106.42199095543155,113.80968003021634L108.61223913678076,103.09737492247316L110.80678416149554,94.14587754959369L113.16187525811013,75.14517110872215L115.41820563965774,68.79284078164972L117.59911829322917,67.50555834093979L119.99191408618552,67.7426964635309L122.26278121812996,61.82737939735285L124.6570648608259,56.763719893873656L126.93916379962799,62.81206270712066L129.20654677924108,61.8977991398052L131.49222572624006,61.34924100071816L133.7261716793527,53.95286004179322L135.94105481815478,52.03900831095399L138.17242933348214,53.414812762848506L140.41960756369048,57.773918469481266L142.63674539915675,57.360443305766886L145.0463451421131,51.55958143039212L147.29486535443948,45.05012571839024L149.50113396827876,43.66856778048095L151.90746210886655,41.32516372428708L154.13663610693206,45.47203671703645L156.30239103080356,43.41689128187433L158.51427763189486,40.66933472733087L160.70086245212056,40.03044699024302L162.89331115073165,41.16158364144102L165.10859855122766,42.849773178217895L167.28189274730903,40.83388696296037L169.43713686713787,34.57626290522037L171.60722197554563,39.90822693211699L173.77812811028025,38.059313019667826L175.92775841050346,40.98841080515294L178.0747630935392,40.72671573475392L180.25972253169644,44.10332172765252L182.39252804368797,41.08119299480553L184.84256229133186,39.77273885291359L187.2966141500372,36.463689528272724L189.61516749128225,38.51670606644128L191.8656089885665,33.69077746512634L194.09777952434274,39.376935668059176L196.26788130333583,36.731030715175706L198.45271154445686,41.20108761808839L201.44929093173366,40.85432182251457L204.5657359950893,37.61746240784892L207.71555140260418,33.15123126996986L210.80808667896827,31.481138782875366L213.82917182666174,37.04150626307763L217.271935262314,30.281680743601896L220.51164680115326,30.769054662685186L223.72431031531497,28.032540427240654L226.91761927992314,31.94354731237466L230.28373553193202,26.71808227536414L233.42070208581353,28.630895581743413L236.57745245682045,33.81702969852396L239.69298063798365,35.414240875144124L242.92697833370534,39.90619061625373L246.13310697842266,38.56291432796674L249.52997629269592,36.24261791112063L252.99427395693203,46.46095536205711L256.7061839925347,44.010242468896315L260.25888577070936,38.50136860004609L263.4071008020337,35.700867376552225L266.5190531426463,33.01092044682426L269.73801397041166,36.94986771538824L273.19654777977433,38.303589880894606L276.6526601866195,37.09653078893499L279.94361293707834,38.391587725022895L283.2342906228795,34.62535265590693L286.4643790663443,37.41370394302234L289.7606122247024,37.06742232402769L293.0244919446057,40.39327638776898L296.33560776800596,39.86481198650704L299.57451078345736,37.02375650624466" style="fill: none;" fill="none"></path></g></g></g></g><g opacity="0.2"><g><g><g><path stroke="rgb(238, 51, 119)" stroke-width="2px" d="M85.1327991375372,394.96165400285014L89.44961386432293,373.50736559354374L94.1506564091518,306.6200382526107L99.38033571733631,294.0001540550821L104.73287307166419,288.9519230769233L109.42310057426835,353.3147883048427L114.11639546457094,362.14919251662064L118.69970200059524,285.1657498433042L123.3874872624504,256.1394615906937L127.62134082140378,273.8075767663811L131.68986385047126,283.90369209876445L135.76661798103922,259.92563482431285L139.5667237482639,242.2571730246912L143.9869336128348,256.1394615906937L148.08673482760418,257.40151933523344L152.747538747123,258.6635770797731L156.83610815503474,261.1873459449183L161.59293881362848,271.28380790123595L166.55106262228423,317.97821132953374L171.88750869413443,227.112826714149L177.9436114312004,264.9735191785374L184.13277461262402,251.0912306125349L189.94699132437998,230.89899994776817L201.4408097714534,172.84607681861303L212.1794757095238,141.29567307692318L223.0387575000124,128.67544225546038L233.6305222402654,93.33886528015141L243.97294086827876,109.7452693352333L254.6928398949281,81.98069220322836L265.33904243153523,55.478519439697266L275.5974288066096,100.91121174738961L285.77513788404013,63.05051928300126L296.0703162409102,80.71863445868863L306.5791239809772,49.168230716998785L316.8389523616816,46.644115227919364L327.96593457884427,46.644115227919364L340.06778345184773,46.644115227919364L351.83457856584823,45.382057483379675L363.06107584206353,41.59623087369479L373.6812847685144,55.478519439697266L384.02040678828126,50.430288461538474L394.5631016606523,45.382057483379675L404.73357570405506,40.334173129155104L414.80045456264884,68.09840363722583L424.86474531287206,46.644115227919364L434.96491533034475,54.21646169515758L444.9367926908606,44.12034636277421L454.9260324659846,49.168230716998785L465.1740539046379,47.90617297245905L475.30176789670145,49.168230716998785L485.3502632673364,37.810057640075684L495.31666434057536,54.21646169515758L505.46471227907983,49.168230716998785L515.5170710578622,32.762173285851105L525.6057717126364,30.23805779677169L535.7327521989461,37.810057640075684L545.9597436942213,64.31257702754095L556.1984671139137,49.168230716998785L566.3486322167536,54.21646169515758L577.2301400651166,56.740230560302734L587.922999402381,36.547999895535995L597.974608004824,47.90617297245905L608.3031316999751,42.858288618234475L617.9969687032739,44.12034636277421L628.4341179323537,54.21646169515758L638.9226083965649,51.692346206078156L649.0556403053447,56.740230560302734L659.2083685106771,58.002288304842466L669.3486771299479,66.83669251662036L679.4026446202133,58.002288304842466L689.3779686242436,34.023884406456574L699.3312541144842,35.28594215099626L709.2823682609871,42.858288618234475L719.2277560614335,41.59623087369479L729.1607951258061,49.168230716998785L739.2379138914312,41.59623087369479L749.2008933270338,39.07211538461537L759.0784693540551,46.644115227919364L768.8907633689732,45.382057483379675L778.7829886728423,35.28594215099626L788.4454641375124,54.21646169515758L797.8887547464285,55.478519439697266L807.9466773330605,45.382057483379675L817.9230015722098,28.976000052232003L827.9215185280631,50.430288461538474L838.029752941183,54.21646169515758L847.9635921936508,42.858288618234475L858.0950070556548,46.644115227919364L868.1220307124008,46.644115227919364L878.1352677950894,44.12034636277421L888.1048404471851,49.168230716998785L898.1757035756697,47.90617297245905L908.1255132488716,55.478519439697266L918.0171842557788,52.95440395061789L927.9191701873513,37.810057640075684L937.810645314881,37.810057640075684L947.6301535255953,42.858288618234475L957.5943749198041,50.430288461538474L967.6722188558904,30.23805779677169" style="fill: none;" fill="none"></path></g><g><path stroke="rgb(0, 153, 136)" stroke-width="2px" d="M81.37615358623512,393.69959625831046L84.59681898134922,377.29319220322856L87.3837740935516,381.0793654368477L90.35972779914435,323.02644230769255L93.31451402903026,321.7643845631528L96.33699950589039,292.73809631054235L99.12419217393355,333.1225576400759L102.01769733219247,307.8820959971504L104.93377446297123,295.26186517568755L107.48074399658978,314.19238471984886L109.94931593510665,295.26186517568755L112.54044584923115,286.4278075878439L115.12863340504714,297.785980664767L117.87906743246529,297.785980664767L120.61491469773065,296.5239229202273L123.43136841065228,299.0480384093067L126.51687286765873,263.7114614339977L128.941605334437,288.9519230769233L131.24330888157243,324.2885000522323L133.8472084640501,268.75969241215654L136.1882212513641,257.40151933523344L138.42508455690725,271.28380790123595L140.6213716577877,272.5455190218414L146.9345889998512,147.60561517568743L153.0887064432912,128.67544225546038L159.15583260489834,104.6970383570745L165.1424190011905,92.07680753561172L171.24404493911211,79.45657671414894L177.21083501533977,66.83669251662036L183.19255360071924,66.83669251662036L189.09959629916918,58.002288304842466L194.84536775525797,66.83669251662036L200.5521300417039,71.88457687084494L206.19194742516123,54.21646169515758L211.94022363669393,52.95440395061789L217.59939556970485,68.09840363722583L223.6691140073289,64.31257702754095L229.9190498075273,60.526403793921844L235.66668003387898,52.95440395061789L241.81063258792165,46.644115227919364L247.57675882868307,47.90617297245905L253.706062105878,49.168230716998785L259.4978360421503,42.858288618234475L265.1916494514509,50.430288461538474L270.9373042134424,45.382057483379675L276.5216877330729,39.07211538461537L281.8860862088541,58.002288304842466L287.22199048668153,35.28594215099626L292.7417629852679,51.692346206078156L298.2619522484871,61.78846153846157L303.9352399996156,36.547999895535995L309.54196627121775,32.762173285851105L315.19593698160963,49.168230716998785L321.34438225839534,40.334173129155104L326.94098114941715,40.334173129155104L332.68561067041173,39.07211538461537L338.4572715454985,45.382057483379675L344.10177753107644,45.382057483379675L349.7064074765749,40.334173129155104L355.5398245349702,34.023884406456574L361.7931694698661,28.976000052232003L367.6309250480903,28.976000052232003L373.69739688922374,49.168230716998785L379.5069333341518,28.976000052232003L385.81059843082835,26.451884563152586L391.4741338895461,32.762173285851105L396.8264253527406,32.762173285851105L402.1626505393353,64.31257702754095L407.5572852892361,46.644115227919364L412.9797140725074,23.927769074073208L418.3132594625124,31.50011554131142L423.6088375944569,26.451884563152586L429.6080311208954,49.168230716998785L435.35090606278527,40.334173129155104L441.0666162859003,56.740230560302734L446.7621425978422,44.12034636277421L453.74167073210566,32.762173285851105L461.25907113399063,17.6178269753089L469.2214636374008,42.858288618234475L476.45880237359876,31.50011554131142L483.63472667348714,35.28594215099626L490.3653963101315,40.334173129155104L497.34756673216765,28.976000052232003L503.9637344535591,34.023884406456574L510.7373516856275,32.762173285851105L517.4831040343378,30.23805779677169L524.3051951608631,31.50011554131142L531.21631138063,36.547999895535995L538.1420602066593,42.858288618234475L543.6808705136781,45.382057483379675L549.3640439218999,27.713942307692314L554.9813560151787,49.168230716998785L560.5189660400545,32.762173285851105L566.0340374335814,36.547999895535995L571.6937136517981,45.382057483379675L577.4854792527778,20.141942464388322L583.0078898714906,41.59623087369479L588.3940017846478,66.83669251662036L593.911290366022,15.093711486229527" style="fill: none;" fill="none"></path></g><g><path stroke="rgb(204, 51, 17)" stroke-width="2px" d="M75.01763392857143,506.0192692830017L76.26146797557044,372.245307849004L77.401106696689,357.10096153846183L78.49819791643105,335.6466731291553L79.40123935543156,358.3630192830015L80.30010481281002,343.21867297245933L81.3402743189856,314.19238471984886L82.19499189879714,306.6200382526107L83.06613417279267,292.73809631054235L84.08164788328372,276.3316922554605L85.08577141635666,263.7114614339977L86.07067376455853,272.5455190218414L86.91236328194444,271.28380790123595L87.73208096788194,286.4278075878439L88.53878309433284,282.641980978159L89.3456644295759,270.0217501566962L90.29746316298363,256.1394615906937L91.25862243004714,267.4976346676168L92.06386588028273,281.3799232336193L92.872293412314,243.51923076923094L93.68568877876983,253.61534610161434L94.4734406173611,259.92563482431285L95.27600843865328,247.30540400285005L96.08965386388888,257.40151933523344L96.88800819474206,249.82917286799523L99.30933986211558,227.112826714149L101.69941001437252,93.33886528015141L104.06339903590032,75.67075010446405L106.42199095543155,74.40869235992436L108.61223913678076,87.02892318138714L110.80678416149554,80.71863445868863L113.16187525811013,46.644115227919364L115.41820563965774,59.264346049382155L117.59911829322917,65.57463477208067L119.99191408618552,68.09840363722583L122.26278121812996,52.95440395061789L124.6570648608259,49.168230716998785L126.93916379962799,71.88457687084494L129.20654677924108,60.526403793921844L131.49222572624006,60.526403793921844L133.7261716793527,42.858288618234475L135.94105481815478,49.168230716998785L138.17242933348214,55.478519439697266L140.41960756369048,64.31257702754095L142.63674539915675,56.740230560302734L145.0463451421131,42.858288618234475L147.29486535443948,35.28594215099626L149.50113396827876,41.59623087369479L151.90746210886655,37.810057640075684L154.13663610693206,51.692346206078156L156.30239103080356,40.334173129155104L158.51427763189486,36.547999895535995L160.70086245212056,39.07211538461537L162.89331115073165,42.858288618234475L165.10859855122766,45.382057483379675L167.28189274730903,37.810057640075684L169.43713686713787,25.189826818612897L171.60722197554563,47.90617297245905L173.77812811028025,35.28594215099626L175.92775841050346,45.382057483379675L178.0747630935392,40.334173129155104L180.25972253169644,49.168230716998785L182.39252804368797,36.547999895535995L184.84256229133186,37.810057640075684L187.2966141500372,31.50011554131142L189.61516749128225,41.59623087369479L191.8656089885665,26.451884563152586L194.09777952434274,47.90617297245905L196.26788130333583,32.762173285851105L198.45271154445686,47.90617297245905L201.44929093173366,40.334173129155104L204.5657359950893,32.762173285851105L207.71555140260418,26.451884563152586L210.80808667896827,28.976000052232003L213.82917182666174,45.382057483379675L217.271935262314,20.141942464388322L220.51164680115326,31.50011554131142L223.72431031531497,23.927769074073208L226.91761927992314,37.810057640075684L230.28373553193202,18.879884719848633L233.42070208581353,31.50011554131142L236.57745245682045,41.59623087369479L239.69298063798365,37.810057640075684L242.92697833370534,46.644115227919364L246.13310697842266,36.547999895535995L249.52997629269592,32.762173285851105L252.99427395693203,61.78846153846157L256.7061839925347,40.334173129155104L260.25888577070936,30.23805779677169L263.4071008020337,31.50011554131142L266.5190531426463,28.976000052232003L269.73801397041166,42.858288618234475L273.19654777977433,40.334173129155104L276.6526601866195,35.28594215099626L279.94361293707834,40.334173129155104L283.2342906228795,28.976000052232003L286.4643790663443,41.59623087369479L289.7606122247024,36.547999895535995L293.0244919446057,45.382057483379675L296.33560776800596,39.07211538461537L299.57451078345736,32.762173285851105" style="fill: none;" fill="none"></path></g></g></g></g></g></g><g transform="translate(61, 378)" clip-path="url(#clip_1)"><clipPath id="clip_1"><rect width="1050" height="22"></rect></clipPath><g><g><line x1="0" y1="0" x2="0" y2="5" style="visibility: inherit;" fill="rgb(0, 0, 0)" stroke="rgb(204, 204, 204)" stroke-width="1px"></line><line x1="75.01763392857143" y1="0" x2="75.01763392857143" y2="5" style="visibility: inherit;" fill="rgb(0, 0, 0)" stroke="rgb(204, 204, 204)" stroke-width="1px"></line><line x1="150.03526785714286" y1="0" x2="150.03526785714286" y2="5" style="visibility: inherit;" fill="rgb(0, 0, 0)" stroke="rgb(204, 204, 204)" stroke-width="1px"></line><line x1="225.05290178571428" y1="0" x2="225.05290178571428" y2="5" style="visibility: inherit;" fill="rgb(0, 0, 0)" stroke="rgb(204, 204, 204)" stroke-width="1px"></line><line x1="300.0705357142857" y1="0" x2="300.0705357142857" y2="5" style="visibility: inherit;" fill="rgb(0, 0, 0)" stroke="rgb(204, 204, 204)" stroke-width="1px"></line><line x1="375.08816964285717" y1="0" x2="375.08816964285717" y2="5" style="visibility: inherit;" fill="rgb(0, 0, 0)" stroke="rgb(204, 204, 204)" stroke-width="1px"></line><line x1="450.10580357142857" y1="0" x2="450.10580357142857" y2="5" style="visibility: inherit;" fill="rgb(0, 0, 0)" stroke="rgb(204, 204, 204)" stroke-width="1px"></line><line x1="525.1234375" y1="0" x2="525.1234375" y2="5" style="visibility: inherit;" fill="rgb(0, 0, 0)" stroke="rgb(204, 204, 204)" stroke-width="1px"></line><line x1="600.1410714285714" y1="0" x2="600.1410714285714" y2="5" style="visibility: inherit;" fill="rgb(0, 0, 0)" stroke="rgb(204, 204, 204)" stroke-width="1px"></line><line x1="675.1587053571429" y1="0" x2="675.1587053571429" y2="5" style="visibility: inherit;" fill="rgb(0, 0, 0)" stroke="rgb(204, 204, 204)" stroke-width="1px"></line><line x1="750.1763392857143" y1="0" x2="750.1763392857143" y2="5" style="visibility: inherit;" fill="rgb(0, 0, 0)" stroke="rgb(204, 204, 204)" stroke-width="1px"></line><line x1="825.1939732142857" y1="0" x2="825.1939732142857" y2="5" style="visibility: inherit;" fill="rgb(0, 0, 0)" stroke="rgb(204, 204, 204)" stroke-width="1px"></line><line x1="900.2116071428571" y1="0" x2="900.2116071428571" y2="5" style="visibility: inherit;" fill="rgb(0, 0, 0)" stroke="rgb(204, 204, 204)" stroke-width="1px"></line><line x1="975.2292410714286" y1="0" x2="975.2292410714286" y2="5" style="visibility: inherit;" fill="rgb(0, 0, 0)" stroke="rgb(204, 204, 204)" stroke-width="1px"></line><line x1="1050.246875" y1="0" x2="1050.246875" y2="5" style="visibility: inherit;" fill="rgb(0, 0, 0)" stroke="rgb(204, 204, 204)" stroke-width="1px"></line></g><g transform="translate(0, 8)"><text x="0" y="0" dx="0em" dy="0.95em" style="text-anchor: middle; visibility: hidden; font-family: Roboto, sans-serif; font-size: 12px; font-weight: 200;" fill="rgb(50, 49, 63)" stroke="none" stroke-width="1px">-5</text><text x="75.01763392857143" y="0" dx="0em" dy="0.95em" style="text-anchor: middle; visibility: inherit; font-family: Roboto, sans-serif; font-size: 12px; font-weight: 200;" fill="rgb(50, 49, 63)" stroke="none" stroke-width="1px">0</text><text x="150.03526785714286" y="0" dx="0em" dy="0.95em" style="text-anchor: middle; visibility: inherit; font-family: Roboto, sans-serif; font-size: 12px; font-weight: 200;" fill="rgb(50, 49, 63)" stroke="none" stroke-width="1px">5</text><text x="225.05290178571428" y="0" dx="0em" dy="0.95em" style="text-anchor: middle; visibility: inherit; font-family: Roboto, sans-serif; font-size: 12px; font-weight: 200;" fill="rgb(50, 49, 63)" stroke="none" stroke-width="1px">10</text><text x="300.0705357142857" y="0" dx="0em" dy="0.95em" style="text-anchor: middle; visibility: inherit; font-family: Roboto, sans-serif; font-size: 12px; font-weight: 200;" fill="rgb(50, 49, 63)" stroke="none" stroke-width="1px">15</text><text x="375.08816964285717" y="0" dx="0em" dy="0.95em" style="text-anchor: middle; visibility: inherit; font-family: Roboto, sans-serif; font-size: 12px; font-weight: 200;" fill="rgb(50, 49, 63)" stroke="none" stroke-width="1px">20</text><text x="450.10580357142857" y="0" dx="0em" dy="0.95em" style="text-anchor: middle; visibility: inherit; font-family: Roboto, sans-serif; font-size: 12px; font-weight: 200;" fill="rgb(50, 49, 63)" stroke="none" stroke-width="1px">25</text><text x="525.1234375" y="0" dx="0em" dy="0.95em" style="text-anchor: middle; visibility: inherit; font-family: Roboto, sans-serif; font-size: 12px; font-weight: 200;" fill="rgb(50, 49, 63)" stroke="none" stroke-width="1px">30</text><text x="600.1410714285714" y="0" dx="0em" dy="0.95em" style="text-anchor: middle; visibility: inherit; font-family: Roboto, sans-serif; font-size: 12px; font-weight: 200;" fill="rgb(50, 49, 63)" stroke="none" stroke-width="1px">35</text><text x="675.1587053571429" y="0" dx="0em" dy="0.95em" style="text-anchor: middle; visibility: inherit; font-family: Roboto, sans-serif; font-size: 12px; font-weight: 200;" fill="rgb(50, 49, 63)" stroke="none" stroke-width="1px">40</text><text x="750.1763392857143" y="0" dx="0em" dy="0.95em" style="text-anchor: middle; visibility: inherit; font-family: Roboto, sans-serif; font-size: 12px; font-weight: 200;" fill="rgb(50, 49, 63)" stroke="none" stroke-width="1px">45</text><text x="825.1939732142857" y="0" dx="0em" dy="0.95em" style="text-anchor: middle; visibility: inherit; font-family: Roboto, sans-serif; font-size: 12px; font-weight: 200;" fill="rgb(50, 49, 63)" stroke="none" stroke-width="1px">50</text><text x="900.2116071428571" y="0" dx="0em" dy="0.95em" style="text-anchor: middle; visibility: inherit; font-family: Roboto, sans-serif; font-size: 12px; font-weight: 200;" fill="rgb(50, 49, 63)" stroke="none" stroke-width="1px">55</text><text x="975.2292410714286" y="0" dx="0em" dy="0.95em" style="text-anchor: middle; visibility: inherit; font-family: Roboto, sans-serif; font-size: 12px; font-weight: 200;" fill="rgb(50, 49, 63)" stroke="none" stroke-width="1px">60</text><text x="1050.246875" y="0" dx="0em" dy="0.95em" style="text-anchor: middle; visibility: hidden; font-family: Roboto, sans-serif; font-size: 12px; font-weight: 200;" fill="rgb(50, 49, 63)" stroke="none" stroke-width="1px">65</text></g><line x1="0" y1="0" x2="1050.246875" y2="0" fill="rgb(0, 0, 0)" stroke="rgb(204, 204, 204)" stroke-width="1px"></line></g></g></g></g></svg>