<svg viewBox="0 0 1112.2000732421875 400" xmlns="http://www.w3.org/2000/svg"><g><g><g><g><g><line x1="51.5625" y1="378" x2="46.5625" y2="378" style="visibility: inherit;" fill="rgb(0, 0, 0)" stroke="rgb(204, 204, 204)" stroke-width="1px"></line><line x1="51.5625" y1="346.5" x2="46.5625" y2="346.5" style="visibility: inherit;" fill="rgb(0, 0, 0)" stroke="rgb(204, 204, 204)" stroke-width="1px"></line><line x1="51.5625" y1="314.99999999999994" x2="46.5625" y2="314.99999999999994" style="visibility: inherit;" fill="rgb(0, 0, 0)" stroke="rgb(204, 204, 204)" stroke-width="1px"></line><line x1="51.5625" y1="283.49999999999994" x2="46.5625" y2="283.49999999999994" style="visibility: inherit;" fill="rgb(0, 0, 0)" stroke="rgb(204, 204, 204)" stroke-width="1px"></line><line x1="51.5625" y1="251.99999999999986" x2="46.5625" y2="251.99999999999986" style="visibility: inherit;" fill="rgb(0, 0, 0)" stroke="rgb(204, 204, 204)" stroke-width="1px"></line><line x1="51.5625" y1="220.49999999999986" x2="46.5625" y2="220.49999999999986" style="visibility: inherit;" fill="rgb(0, 0, 0)" stroke="rgb(204, 204, 204)" stroke-width="1px"></line><line x1="51.5625" y1="189" x2="46.5625" y2="189" style="visibility: inherit;" fill="rgb(0, 0, 0)" stroke="rgb(204, 204, 204)" stroke-width="1px"></line><line x1="51.5625" y1="157.5" x2="46.5625" y2="157.5" style="visibility: inherit;" fill="rgb(0, 0, 0)" stroke="rgb(204, 204, 204)" stroke-width="1px"></line><line x1="51.5625" y1="125.99999999999993" x2="46.5625" y2="125.99999999999993" style="visibility: inherit;" fill="rgb(0, 0, 0)" stroke="rgb(204, 204, 204)" stroke-width="1px"></line><line x1="51.5625" y1="94.49999999999991" x2="46.5625" y2="94.49999999999991" style="visibility: inherit;" fill="rgb(0, 0, 0)" stroke="rgb(204, 204, 204)" stroke-width="1px"></line><line x1="51.5625" y1="62.9999999999999" x2="46.5625" y2="62.9999999999999" style="visibility: inherit;" fill="rgb(0, 0, 0)" stroke="rgb(204, 204, 204)" stroke-width="1px"></line><line x1="51.5625" y1="31.499999999999847" x2="46.5625" y2="31.499999999999847" style="visibility: inherit;" fill="rgb(0, 0, 0)" stroke="rgb(204, 204, 204)" stroke-width="1px"></line><line x1="51.5625" y1="0" x2="46.5625" y2="0" style="visibility: inherit;" fill="rgb(0, 0, 0)" stroke="rgb(204, 204, 204)" stroke-width="1px"></line></g><g transform="translate(41.5625, 0)"><text x="0" y="378" dx="0em" dy="0.3em" style="text-anchor: end; visibility: hidden; font-family: Roboto, sans-serif; font-size: 12px; font-weight: 200;" fill="rgb(50, 49, 63)" stroke="none" stroke-width="1px">0.7</text><text x="0" y="346.5" dx="0em" dy="0.3em" style="text-anchor: end; visibility: inherit; font-family: Roboto, sans-serif; font-size: 12px; font-weight: 200;" fill="rgb(50, 49, 63)" stroke="none" stroke-width="1px">0.72</text><text x="0" y="314.99999999999994" dx="0em" dy="0.3em" style="text-anchor: end; visibility: inherit; font-family: Roboto, sans-serif; font-size: 12px; font-weight: 200;" fill="rgb(50, 49, 63)" stroke="none" stroke-width="1px">0.74</text><text x="0" y="283.49999999999994" dx="0em" dy="0.3em" style="text-anchor: end; visibility: inherit; font-family: Roboto, sans-serif; font-size: 12px; font-weight: 200;" fill="rgb(50, 49, 63)" stroke="none" stroke-width="1px">0.76</text><text x="0" y="251.99999999999986" dx="0em" dy="0.3em" style="text-anchor: end; visibility: inherit; font-family: Roboto, sans-serif; font-size: 12px; font-weight: 200;" fill="rgb(50, 49, 63)" stroke="none" stroke-width="1px">0.78</text><text x="0" y="220.49999999999986" dx="0em" dy="0.3em" style="text-anchor: end; visibility: inherit; font-family: Roboto, sans-serif; font-size: 12px; font-weight: 200;" fill="rgb(50, 49, 63)" stroke="none" stroke-width="1px">0.8</text><text x="0" y="189" dx="0em" dy="0.3em" style="text-anchor: end; visibility: inherit; font-family: Roboto, sans-serif; font-size: 12px; font-weight: 200;" fill="rgb(50, 49, 63)" stroke="none" stroke-width="1px">0.82</text><text x="0" y="157.5" dx="0em" dy="0.3em" style="text-anchor: end; visibility: inherit; font-family: Roboto, sans-serif; font-size: 12px; font-weight: 200;" fill="rgb(50, 49, 63)" stroke="none" stroke-width="1px">0.84</text><text x="0" y="125.99999999999993" dx="0em" dy="0.3em" style="text-anchor: end; visibility: inherit; font-family: Roboto, sans-serif; font-size: 12px; font-weight: 200;" fill="rgb(50, 49, 63)" stroke="none" stroke-width="1px">0.86</text><text x="0" y="94.49999999999991" dx="0em" dy="0.3em" style="text-anchor: end; visibility: inherit; font-family: Roboto, sans-serif; font-size: 12px; font-weight: 200;" fill="rgb(50, 49, 63)" stroke="none" stroke-width="1px">0.88</text><text x="0" y="62.9999999999999" dx="0em" dy="0.3em" style="text-anchor: end; visibility: inherit; font-family: Roboto, sans-serif; font-size: 12px; font-weight: 200;" fill="rgb(50, 49, 63)" stroke="none" stroke-width="1px">0.9</text><text x="0" y="31.499999999999847" dx="0em" dy="0.3em" style="text-anchor: end; visibility: inherit; font-family: Roboto, sans-serif; font-size: 12px; font-weight: 200;" fill="rgb(50, 49, 63)" stroke="none" stroke-width="1px">0.92</text><text x="0" y="0" dx="0em" dy="0.3em" style="text-anchor: end; visibility: hidden; font-family: Roboto, sans-serif; font-size: 12px; font-weight: 200;" fill="rgb(50, 49, 63)" stroke="none" stroke-width="1px">0.94</text></g><line x1="51.5625" y1="0" x2="51.5625" y2="378" fill="rgb(0, 0, 0)" stroke="rgb(204, 204, 204)" stroke-width="1px"></line></g></g><g transform="translate(51, 0)" clip-path="url(#clip_0)"><clipPath id="clip_0"><rect width="1060" height="378"></rect></clipPath><g><g><g><line x1="0" y1="0" x2="0" y2="378" fill="rgb(0, 0, 0)" stroke="rgb(60, 60, 60)" stroke-width="1px" opacity="0.25"></line><line x1="75.75982142857143" y1="0" x2="75.75982142857143" y2="378" fill="rgb(0, 0, 0)" stroke="rgb(60, 60, 60)" stroke-width="1px" opacity="0.25"></line><line x1="151.51964285714286" y1="0" x2="151.51964285714286" y2="378" fill="rgb(0, 0, 0)" stroke="rgb(60, 60, 60)" stroke-width="1px" opacity="0.25"></line><line x1="227.27946428571428" y1="0" x2="227.27946428571428" y2="378" fill="rgb(0, 0, 0)" stroke="rgb(60, 60, 60)" stroke-width="1px" opacity="0.25"></line><line x1="303.0392857142857" y1="0" x2="303.0392857142857" y2="378" fill="rgb(0, 0, 0)" stroke="rgb(60, 60, 60)" stroke-width="1px" opacity="0.25"></line><line x1="378.79910714285717" y1="0" x2="378.79910714285717" y2="378" fill="rgb(0, 0, 0)" stroke="rgb(60, 60, 60)" stroke-width="1px" opacity="0.25"></line><line x1="454.55892857142857" y1="0" x2="454.55892857142857" y2="378" fill="rgb(0, 0, 0)" stroke="rgb(60, 60, 60)" stroke-width="1px" opacity="0.25"></line><line x1="530.31875" y1="0" x2="530.31875" y2="378" fill="rgb(0, 0, 0)" stroke="rgb(60, 60, 60)" stroke-width="1px" opacity="0.25"></line><line x1="606.0785714285714" y1="0" x2="606.0785714285714" y2="378" fill="rgb(0, 0, 0)" stroke="rgb(60, 60, 60)" stroke-width="1px" opacity="0.25"></line><line x1="681.8383928571429" y1="0" x2="681.8383928571429" y2="378" fill="rgb(0, 0, 0)" stroke="rgb(60, 60, 60)" stroke-width="1px" opacity="0.25"></line><line x1="757.5982142857143" y1="0" x2="757.5982142857143" y2="378" fill="rgb(0, 0, 0)" stroke="rgb(60, 60, 60)" stroke-width="1px" opacity="0.25"></line><line x1="833.3580357142857" y1="0" x2="833.3580357142857" y2="378" fill="rgb(0, 0, 0)" stroke="rgb(60, 60, 60)" stroke-width="1px" opacity="0.25"></line><line x1="909.1178571428571" y1="0" x2="909.1178571428571" y2="378" fill="rgb(0, 0, 0)" stroke="rgb(60, 60, 60)" stroke-width="1px" opacity="0.25"></line><line x1="984.8776785714286" y1="0" x2="984.8776785714286" y2="378" fill="rgb(0, 0, 0)" stroke="rgb(60, 60, 60)" stroke-width="1px" opacity="0.25"></line><line x1="1060.6375" y1="0" x2="1060.6375" y2="378" fill="rgb(0, 0, 0)" stroke="rgb(60, 60, 60)" stroke-width="1px" opacity="0.25"></line></g><g><line x1="0" y1="378" x2="1060.6375" y2="378" fill="rgb(0, 0, 0)" stroke="rgb(60, 60, 60)" stroke-width="1px" opacity="0.25"></line><line x1="0" y1="346.5" x2="1060.6375" y2="346.5" fill="rgb(0, 0, 0)" stroke="rgb(60, 60, 60)" stroke-width="1px" opacity="0.25"></line><line x1="0" y1="314.99999999999994" x2="1060.6375" y2="314.99999999999994" fill="rgb(0, 0, 0)" stroke="rgb(60, 60, 60)" stroke-width="1px" opacity="0.25"></line><line x1="0" y1="283.49999999999994" x2="1060.6375" y2="283.49999999999994" fill="rgb(0, 0, 0)" stroke="rgb(60, 60, 60)" stroke-width="1px" opacity="0.25"></line><line x1="0" y1="251.99999999999986" x2="1060.6375" y2="251.99999999999986" fill="rgb(0, 0, 0)" stroke="rgb(60, 60, 60)" stroke-width="1px" opacity="0.25"></line><line x1="0" y1="220.49999999999986" x2="1060.6375" y2="220.49999999999986" fill="rgb(0, 0, 0)" stroke="rgb(60, 60, 60)" stroke-width="1px" opacity="0.25"></line><line x1="0" y1="189" x2="1060.6375" y2="189" fill="rgb(0, 0, 0)" stroke="rgb(60, 60, 60)" stroke-width="1px" opacity="0.25"></line><line x1="0" y1="157.5" x2="1060.6375" y2="157.5" fill="rgb(0, 0, 0)" stroke="rgb(60, 60, 60)" stroke-width="1px" opacity="0.25"></line><line x1="0" y1="125.99999999999993" x2="1060.6375" y2="125.99999999999993" fill="rgb(0, 0, 0)" stroke="rgb(60, 60, 60)" stroke-width="1px" opacity="0.25"></line><line x1="0" y1="94.49999999999991" x2="1060.6375" y2="94.49999999999991" fill="rgb(0, 0, 0)" stroke="rgb(60, 60, 60)" stroke-width="1px" opacity="0.25"></line><line x1="0" y1="62.9999999999999" x2="1060.6375" y2="62.9999999999999" fill="rgb(0, 0, 0)" stroke="rgb(60, 60, 60)" stroke-width="1px" opacity="0.25"></line><line x1="0" y1="31.499999999999847" x2="1060.6375" y2="31.499999999999847" fill="rgb(0, 0, 0)" stroke="rgb(60, 60, 60)" stroke-width="1px" opacity="0.25"></line><line x1="0" y1="0" x2="1060.6375" y2="0" fill="rgb(0, 0, 0)" stroke="rgb(60, 60, 60)" stroke-width="1px" opacity="0.25"></line></g></g></g><g><g><line x1="0" y1="1480.5" x2="1060.6375" y2="1480.5" fill="rgb(0, 0, 0)" stroke="rgb(153, 153, 153)" stroke-width="1.5px"></line></g></g><g><g><line x1="75.75982142857143" y1="0" x2="75.75982142857143" y2="378" fill="rgb(0, 0, 0)" stroke="rgb(153, 153, 153)" stroke-width="1.5px"></line></g></g><g><g><g><g><g><path stroke="rgb(238, 51, 119)" stroke-width="2px" d="M75.75982142857143,382.30664062499994L81.32206542906746,368.2074999734759L85.97506109717263,361.4500515460968L90.33458426145835,364.75183112130463L95.08213239558533,364.21226265664586L100.36355578244049,343.98276561952395L105.76904850352182,331.20060743773746L110.50567880560516,336.14005955773774L115.24540684260914,328.553672004821L119.8740583547619,321.02497800857054L124.60822225376985,310.2250362011908L128.8839634733135,310.6210358033284L132.99273846418652,313.869845920458L137.10982599102184,310.8906792201686L140.9475239230655,307.05290305039665L145.41146937455358,300.7854591547315L149.55183200208333,307.5552338895532L154.25874340977182,292.6105121091351L158.38776310848215,296.90720660572066L163.19165971423612,307.0048660891623L168.19883675639883,306.7740208564325L173.58807899578375,297.338498727259L179.70409782876985,296.59917880307233L185.9544935405754,286.9954117925084L191.826233247123,285.7448997702634L203.43376586954366,252.31877453259645L214.2786706673115,219.27482047706386L225.24539304905753,195.34689215293523L235.9419432809524,161.9862521721405L246.38668891081346,148.66907541990327L257.2126453354663,121.94832922456129L267.96417194444444,105.09554617650555L278.32405394766863,105.10107353384196L288.6024520540675,91.97940208900408L298.99948583194447,99.28215593964153L309.61226674573413,84.79664550902542L319.9735966033234,77.33580810389279L331.21066369895834,72.58585984469818L343.43224230069444,68.23197630246855L355.3154564955357,72.18215870908668L366.6530189942957,62.2475806398091L377.3783032429067,60.79854003853797L387.81971123174606,60.0658386005859L398.46671033154763,53.610596909233216L408.73781024181545,55.616349801098295L418.9042816298116,53.128395285853514L429.0681435128472,54.09656007689802L439.2682438437996,53.31026727914564L449.33877804459325,52.01819161746996L459.4268464351686,51.92652328118071L469.7762567475198,51.734836908007985L480.0041651418155,49.29557295549713L490.1520795824406,50.156266712600186L500.21707910739093,47.80157669988285L510.46552683105165,53.36140642528296L520.6173429024802,57.6543271658707L530.805851980754,52.16369004952126L541.0330280301092,45.72479321901233L551.3611961303076,44.4590779921068L561.7012206425595,38.91449677828843L571.9518064767361,40.37290012767269L582.940970601141,34.275298404278445L593.7396156101687,30.480014447916837L603.8906740833829,36.67940240177465L614.3213831018849,34.79358311338996L624.1111219423116,36.806606101058506L634.6515353911211,38.15114281598489L645.2437938110614,36.08679612889134L655.4770727349207,41.410663082684344L665.7302512385418,44.74170617728539L675.9708830739582,51.25203826707053L686.1243195637898,50.23636252094185L696.1983345074901,46.75588835721522L706.2500886903274,42.343389281304646L716.2996584649802,36.414614801807296L726.3434368221726,36.68547928643403L736.3747526887402,39.99255008883565L746.551565292361,40.746323820276736L756.6131177454365,34.636075542165976L766.5884176418155,32.74728701460011L776.4977896580358,33.93822847573538L786.4878837639881,33.96917874079087L796.2459549990575,37.54243222749922L805.7826686625497,34.080932258824625L815.9401035874008,33.64466979459537L826.0151244531746,32.56257478210705L836.1125618083333,35.46800110228879L846.3208063200892,38.03159442834856L856.3529218736608,31.640046234684092L866.5845761702382,27.94184024081044L876.7108022575396,31.87526039448623L886.8231053732143,33.14156665901696L896.8913120639386,31.57713584006032L907.0618113491072,32.14239194333679L917.110059535764,34.66903726065238L927.0995938608136,38.78268487336679L937.0995409524305,37.96959840704469L947.0888816690476,40.89974448352734L957.005539254762,39.92344878476671L967.0683417448909,41.66188594318509L977.2458866934526,38.32992737661032" style="fill: none;" fill="none"></path></g><g><path stroke="rgb(0, 153, 136)" stroke-width="2px" d="M78.99692495848214,385.08374284207815L82.18125335500991,375.99386820622846L85.43378242633929,365.07230032038154L88.24831029895833,365.72795334944374L91.25370662390873,358.19958249440305L94.23772605257936,345.61512996084895L97.29011030233136,336.62510719337797L100.10488228993056,330.63817989976303L103.02701015337303,312.91715777325254L105.97193751418651,299.8834734184991L108.54410550917659,303.4660116293198L111.03710028189485,315.6040622086989L113.65386555843254,317.9510035808578L116.26765936641866,309.50961022676097L119.04530904151787,307.8662400232601L121.8082234313492,300.31689114440553L124.6525375404266,304.2655190198186L127.76857266681547,298.70428920526086L130.2172900327877,296.59828194651953L132.54176970937502,312.42494135655795L135.17143099107145,300.5922965536724L137.53560460520833,295.5436318283477L139.7945941250496,300.4441627229424L142.0126144170139,299.8297729647125L148.38829162018848,248.19153403807732L154.60329486875,214.88443010032168L160.73044618660714,181.36502499309546L166.77626091840278,151.95649581544228L172.9382533363591,130.48325522511647L178.9640716841766,114.18135305038936L185.0049704453373,100.98225245208714L190.97045451314486,96.34403040511759L196.7730760092758,95.47518073515238L202.53629818938492,86.75072077413633L208.23191314662697,79.32855321560146L214.0370599701389,79.38695899042165L219.75221675243057,76.27748788270671L225.88198599300597,70.99384481250286L232.19375978680554,66.04629853623781L237.99825002519842,68.40981454596339L244.20298781795637,62.445111647032576L250.02616547896827,58.729566987146605L256.2161090621528,52.80883394126221L262.06517974657737,49.11967119204867L267.8153291486111,46.496004775765L273.617824378373,42.59759034833768L279.25746124533725,40.942156303615796L284.6749324359623,41.8629416875316L290.06362752108134,41.184944167863215L295.6380099285219,45.42657481143795L301.21281322385914,50.29580532617747L306.9422254792163,45.561085290348345L312.6044261463294,44.497576157232615L318.31433445654767,43.039170694338516L324.52360521195436,39.01961285590208L330.17557409429565,38.795369808191374L335.97703814871034,40.98503855724024L341.8058052009921,37.10351896201872L347.50615514707346,40.653505110236026L353.1662345391865,41.4163051268412L359.0573645511409,35.99508723145423L365.3725769990575,32.19550235584797L371.26808845401786,28.95869097420793L377.39457476899804,37.543968756849885L383.2615921133432,39.6873062371345L389.62762256592265,30.582704586930973L395.347190253373,28.67462692448369L400.75243465059526,30.127440749340288L406.1414538193948,37.15147279425429L411.5894562180556,33.29946490957706L417.0655360483135,27.98046854039651L422.4518446990576,28.07030820191263L427.79981888015874,24.1593599041722L433.85836547083335,24.273728425527892L439.6580575872024,27.4869016499669L445.43031623045636,32.01246600695552L451.1821912728671,31.036398371148604L458.23077141884926,29.220289039664532L465.8225410667163,27.72045467379877L473.8637137664187,27.777576959629105L481.172655165377,26.7181045034524L488.4195745238592,25.535566891372127L495.2168340888889,26.466644290173036L502.2680826641369,24.837799074103774L508.9497032795139,22.08313150516166L515.7903395511905,24.668628903096884L522.6028310492064,33.60273984185824L529.4924123744048,31.853839749765303L536.471903772123,31.761522599859227L543.4661725438989,29.10847188759048L549.0597811104662,26.149449787904004L554.7991810356151,20.95607612274232L560.4720680464286,24.129118595970514L566.0644644558531,23.435283657582158L571.6341034566965,25.753366039199413L577.3497695133433,26.050469640494924L583.1988401977679,19.939665128947198L588.7758868255953,18.05050531039284L594.2152820667658,37.15140110856086L599.7871601912202,28.24082397583588" style="fill: none;" fill="none"></path></g><g><path stroke="rgb(204, 51, 17)" stroke-width="2px" d="M78.16687510163692,390.893437743187L79.27481619236111,369.51187453747673L80.1867918783234,359.1989455356273L81.09455447643849,351.3984110224289L82.14501069821429,329.65697984088337L83.00818864141867,339.39603537251264L83.88794956775796,334.775443823512L84.9135102704365,318.5531303572901L85.92756810689485,309.5688146314189L86.92221459355159,305.98036920353064L87.77223137222222,309.7188938894681L88.60005894097222,307.71725942491423L89.41474218070437,309.6633144277655L90.22960640223215,306.04385925787597L91.19081755436508,299.2235860933383L92.16149026641867,294.1750410036572L92.97469618963294,298.52950452334517L93.79112611413692,296.9035974575691L94.61256881349206,295.6546394208609L95.40811428055555,295.99904235793184L96.21861810347224,299.21349661097537L97.04031754444443,293.62261941417756L97.84657039960317,291.4985822991083L100.29185332033731,272.72412569832284L102.70557385768849,220.58051580051108L105.09295102157739,182.1850129965005L107.47487347832342,154.3625725635159L109.68679089578374,137.39566895949457L111.90304766746034,131.18038181824932L114.28144308363096,112.95899220147044L116.56009227713292,99.97539052856452L118.76258601458333,97.65399676760352L121.1790549499008,84.09319576674288L123.47238892212302,79.9215299000419L125.89036042723215,64.8404345359941L128.19503732827383,72.47144824993164L130.48485267767856,63.378177257374865L132.79314500575396,67.90268761047281L135.04919251919642,62.9611354676701L137.2859886202381,56.7149666999212L139.53943925535717,55.564925864270954L141.80884575064485,58.83975345843014L144.04791885520837,57.933543747288894L146.4813579905258,50.143728342537834L148.7521281625992,44.649501566016504L150.98022451081349,42.72015717259098L153.41035546726192,39.785227648165154L155.66158802316468,44.860190744289774L157.84876565004961,39.97550196352572L160.08253977599207,40.46264910044193L162.2907575888393,36.926808210258905L164.50489729439485,34.258411986852025L166.7421016566964,35.93864928676252L168.9368973545139,33.25538541670683L171.11346018864091,37.114156233049385L173.3050150496528,35.464604179130006L175.49739905982142,36.11547291282768L177.66829674285717,34.59194834234678L179.83654704102184,39.00983981610755L182.04312339107145,37.69576015663991L184.1970298297123,35.813566533284586L186.6713035087798,39.60612535927132L189.14963033829366,39.42072315486321L191.49112230367066,37.94229015989311L193.76383276894845,33.36382411291129L196.01808309107145,28.292529907047406L198.2096589964782,34.40988877190316L200.4161048712798,37.67013532384128L203.44233093824406,32.106785383605384L206.58960857321432,29.725798324813546L209.77058670208336,27.88703732256286L212.8937179984127,30.61190989353791L215.94469227371033,35.93823968612272L219.42151250525797,27.37624175097406L222.69328036235117,25.79372631755989L225.93772838606148,22.93013369588567L229.16263037584326,30.372151062181594L232.56204932316467,23.352973964983683L235.73005147817463,18.321167723640478L238.91802897276787,17.48957563418427L242.06438486324407,19.58828080283563L245.33037813839283,19.753758076351637L248.568226639881,23.134281923485865L251.99870290510913,22.15480459339211L255.49727041428574,31.54755356673462L259.24590846736106,27.202767579341234L262.83375892609126,26.78338764225488L266.0131208454365,25.16456800767796L269.15586130887897,22.279192865306097L272.40666473983134,21.231582391508617L275.89941557827376,25.661614029555377L279.3897252669147,21.210266357033706L282.71323708204363,26.05895562491963L286.0364669022818,23.636162969601894L289.2985164578373,23.412956126411462L292.62736092261906,22.45869448654626L295.9235318599703,22.84319795890295L299.2674020226687,27.58560627534177L302.53835335724204,27.42322207590451" style="fill: none;" fill="none"></path></g></g></g></g><g opacity="0.2"><g><g><g><path stroke="rgb(238, 51, 119)" stroke-width="2px" d="M75.75982142857143,382.30664062499994L81.32206542906746,359.74801558256144L85.97506109717263,354.9629010558128L90.33458426145835,368.6347239017486L95.08213239558533,363.5078020691871L100.36355578244049,315.9980885982513L105.76904850352182,312.9219167232513L110.50567880560516,343.34182816743845L115.24540684260914,317.3652239441871L119.8740583547619,309.8457448482513L124.60822225376985,294.12307816743845L128.8839634733135,311.2128801941871L132.99273846418652,318.73245316743845L137.10982599102184,306.42776566743845L140.9475239230655,301.30074995756144L145.41146937455358,291.3887135982513L149.55183200208333,317.70703124999994L154.25874340977182,270.1972239017486L158.38776310848215,303.35159379243845L163.19165971423612,322.1504323482513L168.19883675639883,306.42776566743845L173.58807899578375,283.1855260133743L179.70409782876985,295.4902135133743L185.9544935405754,272.58987504243845L191.826233247123,283.86914062499994L203.43376586954366,202.1797292232513L214.2786706673115,169.7089739441871L225.24539304905753,159.4550364017486L235.9419432809524,111.94532293081274L246.38668891081346,128.69331765174857L257.2126453354663,81.86721879243842L267.96417194444444,79.81637495756141L278.32405394766863,105.1093645691871L288.6024520540675,72.29689586162557L298.99948583194447,110.23628640174857L309.61226674573413,63.06838023662557L319.9735966033234,66.14455211162559L331.21066369895834,65.46093749999993L343.43224230069444,61.70115101337426L355.3154564955357,78.10743230581275L366.6530189942957,47.345713555812736L377.3783032429067,58.62497913837424L387.81971123174606,58.96678644418709L398.46671033154763,43.927734374999915L408.73781024181545,58.62497913837424L418.9042816298116,49.39646351337424L429.0681435128472,55.54880726337423L439.2682438437996,52.13082808256141L449.33877804459325,50.0800781249999L459.4268464351686,51.78902077674856L469.7762567475198,51.44730734825126L480.0041651418155,45.63667702674857L490.1520795824406,51.44730734825126L500.21707910739093,44.269541680812765L510.46552683105165,61.70115101337426L520.6173429024802,64.09370827674857L530.805851980754,43.927734374999915L541.0330280301092,36.06644797325127L551.3611961303076,42.56050515174856L561.7012206425595,30.597624957561393L571.9518064767361,42.56050515174856L582.940970601141,25.128895819187065L593.7396156101687,24.787088513374258L603.8906740833829,45.97848433256142L614.3213831018849,31.96485418081275L624.1111219423116,39.82614058256139L634.6515353911211,40.16794788837424L645.2437938110614,32.99027609825126L655.4770727349207,49.39646351337424L665.7302512385418,49.73827081918709L675.9708830739582,61.01753640174856L686.1243195637898,48.712848901748586L696.1983345074901,41.5351771116256L706.2500886903274,35.72464066743842L716.2996584649802,27.521453082561422L726.3434368221726,37.09177601337423L736.3747526887402,44.95315629243842L746.551565292361,41.87698441743841L756.6131177454365,25.470703124999915L766.5884176418155,29.914104223251243L776.4977896580358,35.72464066743842L786.4878837639881,34.01560413837426L796.2459549990575,42.90231245756141L805.7826686625497,28.888682305812736L815.9401035874008,32.99027609825126L826.0151244531746,30.939432263374243L836.1125618083333,39.82614058256139L846.3208063200892,41.87698441743841L856.3529218736608,22.052723944187093L866.5845761702382,22.3945312499999L876.7108022575396,37.77539062499993L886.8231053732143,35.041026055812765L896.8913120639386,29.230489611625586L907.0618113491072,32.99027609825126L917.110059535764,38.459005236625586L927.0995938608136,44.95315629243842L937.0995409524305,36.74996870756142L947.0888816690476,45.29496359825127L957.005539254762,38.459005236625586L967.0683417448909,44.269541680812765L977.2458866934526,33.33198952674856" style="fill: none;" fill="none"></path></g><g><path stroke="rgb(0, 153, 136)" stroke-width="2px" d="M78.99692495848214,379.5722760558128L82.18125335500991,367.2675885558128L85.43378242633929,352.2285364866256L88.24831029895833,366.5839739441871L91.25370662390873,347.7851353883743L94.23772605257936,327.6191614866256L97.29011030233136,323.5175676941871L100.10488228993056,321.80862504243845L103.02701015337303,286.6035051941871L105.97193751418651,280.4511614441871L108.54410550917659,308.8203229308128L111.03710028189485,333.7715052366256L113.65386555843254,321.4668177366256L116.26765936641866,296.8574427366256L119.04530904151787,305.40234374999994L121.8082234313492,288.99606245756144L124.6525375404266,310.1874582767486L127.76857266681547,290.3632916808128L130.2172900327877,293.4394635558128L132.54176970937502,336.16406249999994L135.17143099107145,282.84371870756144L137.53560460520833,287.97073441743845L139.7945941250496,307.7949010133743L142.0126144170139,298.9081926941871L148.38829162018848,170.73439586162561L154.60329486875,164.92385941743842L160.73044618660714,131.08596879243845L166.77626091840278,107.84372913837426L172.9382533363591,98.27340620756141L178.9640716841766,89.72850519418706L185.0049704453373,81.18360418081276L190.97045451314486,89.38669788837426L196.7730760092758,94.17190629243844L202.53629818938492,73.66403120756142L208.23191314662697,68.1953020691871L214.0370599701389,79.47456765174856L219.75221675243057,71.61328124999991L225.88198599300597,63.06838023662557L232.19375978680554,58.62497913837424L237.99825002519842,71.95508855581276L244.20298781795637,53.498057305812765L250.02616547896827,53.156249999999915L256.2161090621528,43.927734374999915L262.06517974657737,43.585927069187065L267.8153291486111,42.56050515174856L273.617824378373,36.74996870756142L279.25746124533725,38.459005236625586L284.6749324359623,43.24411976337426L290.06362752108134,40.16794788837424L295.6380099285219,51.78902077674856L301.21281322385914,57.59965109825124L306.9422254792163,38.459005236625586L312.6044261463294,42.90231245756141L318.31433445654767,40.8515624999999L324.52360521195436,32.99027609825126L330.17557409429565,38.459005236625586L335.97703814871034,44.269541680812765L341.8058052009921,31.281239569187093L347.50615514707346,45.97848433256142L353.1662345391865,42.56050515174856L359.0573645511409,27.86326038837423L365.3725769990575,26.496125042438422L371.26808845401786,24.103473901748558L377.39457476899804,50.42188543081275L383.2615921133432,42.90231245756141L389.62762256592265,16.925802111625572L395.347190253373,25.812510430812765L400.75243465059526,32.3066614866256L406.1414538193948,47.687520861625586L411.5894562180556,27.521453082561422L417.0655360483135,20.001973986625586L422.4518446990576,28.20506769418708L427.79981888015874,18.292937457561422L433.85836547083335,24.445281207561408L439.6580575872024,32.3066614866256L445.43031623045636,38.800812542438436L451.1821912728671,29.572296917438436L458.23077141884926,26.496125042438422L465.8225410667163,25.470703124999915L473.8637137664187,27.86326038837423L481.172655165377,25.128895819187065L488.4195745238592,23.761760473251258L495.2168340888889,27.86326038837423L502.2680826641369,22.3945312499999L508.9497032795139,17.951130151748572L515.7903395511905,28.54687499999993L522.6028310492064,47.00390624999993L529.4924123744048,29.230489611625586L536.471903772123,31.6230468749999L543.4661725438989,25.128895819187065L549.0597811104662,21.710916638374243L554.7991810356151,13.166015624999902L560.4720680464286,28.888682305812736L566.0644644558531,22.3945312499999L571.6341034566965,29.230489611625586L577.3497695133433,26.496125042438422L583.1988401977679,10.773458361625588L588.7758868255953,15.21676558256141L594.2152820667658,65.80274480581274L599.7871601912202,14.87495827674856" style="fill: none;" fill="none"></path></g><g><path stroke="rgb(204, 51, 17)" stroke-width="2px" d="M77.01595714776786,401.78909379243845L78.16687510163692,370.3437604308128L79.27481619236111,344.36715620756144L80.1867918783234,345.7343854308128L81.09455447643849,340.6074635982513L82.14501069821429,298.5663853883743L83.00818864141867,353.59567183256144L83.88794956775796,327.96096879243845L84.9135102704365,294.4648854732513L85.92756810689485,296.17382812499994L86.92221459355159,300.6172292232513L87.77223137222222,315.3144739866256L88.60005894097222,304.7187291383743L89.41474218070437,312.58010941743845L90.22960640223215,300.6172292232513L91.19081755436508,288.99606245756144L92.16149026641867,286.6035051941871L92.97469618963294,305.0605364441871L93.79112611413692,294.4648854732513L94.61256881349206,293.7812708616256L95.40811428055555,296.5156354308128L96.21861810347224,304.0351145267486L97.04031754444443,285.2363698482513L97.84657039960317,288.3125417232513L100.29185332033731,244.56252086162561L102.70557385768849,142.36523437499991L105.09295102157739,124.5918177366256L107.47487347832342,112.62893754243844L109.68679089578374,111.94532293081274L111.90304766746034,121.85745316743844L114.28144308363096,85.62691140174859L116.56009227713292,80.49998956918706L118.76258601458333,94.17190629243844L121.1790549499008,63.75199484825127L123.47238892212302,73.66403120756142L125.89036042723215,42.21879172325126L128.19503732827383,83.91796874999993L130.48485267767856,49.73827081918709L132.79314500575396,74.68945312499993L135.04919251919642,55.54880726337423L137.2859886202381,47.345713555812736L139.53943925535717,53.83986461162557L141.80884575064485,63.75199484825127L144.04791885520837,56.574229180812736L146.4813579905258,38.459005236625586L148.7521281625992,36.40816140174857L150.98022451081349,39.82614058256139L153.41035546726192,35.38283336162557L155.66158802316468,52.47263538837426L157.84876565004961,32.64846879243841L160.08253977599207,41.19336980581275L162.2907575888393,31.6230468749999L164.50489729439485,30.255817651748586L166.7421016566964,38.459005236625586L168.9368973545139,29.230489611625586L171.11346018864091,42.90231245756141L173.3050150496528,32.99027609825126L175.49739905982142,37.09177601337423L177.66829674285717,32.3066614866256L179.83654704102184,45.63667702674857L182.04312339107145,35.72464066743842L184.1970298297123,32.99027609825126L186.6713035087798,45.29496359825127L189.14963033829366,39.14261984825124L191.49112230367066,35.72464066743842L193.76383276894845,26.496125042438422L196.01808309107145,20.685588598251243L198.2096589964782,43.585927069187065L200.4161048712798,42.56050515174856L203.44233093824406,23.761760473251258L206.58960857321432,26.154317736625572L209.77058670208336,25.128895819187065L212.8937179984127,34.699218749999915L215.94469227371033,43.927734374999915L219.42151250525797,14.53324484825126L222.69328036235117,23.419953167438408L225.93772838606148,18.63474476337423L229.16263037584326,41.5351771116256L232.56204932316467,12.824208319187095L235.73005147817463,10.773458361625588L238.91802897276787,16.242187499999915L242.06438486324407,22.73633855581275L245.33037813839283,20.001973986625586L248.568226639881,28.20506769418708L251.99870290510913,20.685588598251243L255.49727041428574,45.63667702674857L259.24590846736106,20.685588598251243L262.83375892609126,26.154317736625572L266.0131208454365,22.73633855581275L269.15586130887897,17.951130151748572L272.40666473983134,19.660166680812736L275.89941557827376,32.3066614866256L279.3897252669147,14.53324484825126L282.71323708204363,33.33198952674856L286.0364669022818,20.001973986625586L289.2985164578373,23.0781458616256L292.62736092261906,21.027302026748586L295.9235318599703,23.419953167438408L299.2674020226687,34.699218749999915L302.53835335724204,27.179645776748572" style="fill: none;" fill="none"></path></g></g></g></g></g></g><g transform="translate(51, 378)" clip-path="url(#clip_1)"><clipPath id="clip_1"><rect width="1060" height="22"></rect></clipPath><g><g><line x1="0" y1="0" x2="0" y2="5" style="visibility: inherit;" fill="rgb(0, 0, 0)" stroke="rgb(204, 204, 204)" stroke-width="1px"></line><line x1="75.75982142857143" y1="0" x2="75.75982142857143" y2="5" style="visibility: inherit;" fill="rgb(0, 0, 0)" stroke="rgb(204, 204, 204)" stroke-width="1px"></line><line x1="151.51964285714286" y1="0" x2="151.51964285714286" y2="5" style="visibility: inherit;" fill="rgb(0, 0, 0)" stroke="rgb(204, 204, 204)" stroke-width="1px"></line><line x1="227.27946428571428" y1="0" x2="227.27946428571428" y2="5" style="visibility: inherit;" fill="rgb(0, 0, 0)" stroke="rgb(204, 204, 204)" stroke-width="1px"></line><line x1="303.0392857142857" y1="0" x2="303.0392857142857" y2="5" style="visibility: inherit;" fill="rgb(0, 0, 0)" stroke="rgb(204, 204, 204)" stroke-width="1px"></line><line x1="378.79910714285717" y1="0" x2="378.79910714285717" y2="5" style="visibility: inherit;" fill="rgb(0, 0, 0)" stroke="rgb(204, 204, 204)" stroke-width="1px"></line><line x1="454.55892857142857" y1="0" x2="454.55892857142857" y2="5" style="visibility: inherit;" fill="rgb(0, 0, 0)" stroke="rgb(204, 204, 204)" stroke-width="1px"></line><line x1="530.31875" y1="0" x2="530.31875" y2="5" style="visibility: inherit;" fill="rgb(0, 0, 0)" stroke="rgb(204, 204, 204)" stroke-width="1px"></line><line x1="606.0785714285714" y1="0" x2="606.0785714285714" y2="5" style="visibility: inherit;" fill="rgb(0, 0, 0)" stroke="rgb(204, 204, 204)" stroke-width="1px"></line><line x1="681.8383928571429" y1="0" x2="681.8383928571429" y2="5" style="visibility: inherit;" fill="rgb(0, 0, 0)" stroke="rgb(204, 204, 204)" stroke-width="1px"></line><line x1="757.5982142857143" y1="0" x2="757.5982142857143" y2="5" style="visibility: inherit;" fill="rgb(0, 0, 0)" stroke="rgb(204, 204, 204)" stroke-width="1px"></line><line x1="833.3580357142857" y1="0" x2="833.3580357142857" y2="5" style="visibility: inherit;" fill="rgb(0, 0, 0)" stroke="rgb(204, 204, 204)" stroke-width="1px"></line><line x1="909.1178571428571" y1="0" x2="909.1178571428571" y2="5" style="visibility: inherit;" fill="rgb(0, 0, 0)" stroke="rgb(204, 204, 204)" stroke-width="1px"></line><line x1="984.8776785714286" y1="0" x2="984.8776785714286" y2="5" style="visibility: inherit;" fill="rgb(0, 0, 0)" stroke="rgb(204, 204, 204)" stroke-width="1px"></line><line x1="1060.6375" y1="0" x2="1060.6375" y2="5" style="visibility: inherit;" fill="rgb(0, 0, 0)" stroke="rgb(204, 204, 204)" stroke-width="1px"></line></g><g transform="translate(0, 8)"><text x="0" y="0" dx="0em" dy="0.95em" style="text-anchor: middle; visibility: hidden; font-family: Roboto, sans-serif; font-size: 12px; font-weight: 200;" fill="rgb(50, 49, 63)" stroke="none" stroke-width="1px">-5</text><text x="75.75982142857143" y="0" dx="0em" dy="0.95em" style="text-anchor: middle; visibility: inherit; font-family: Roboto, sans-serif; font-size: 12px; font-weight: 200;" fill="rgb(50, 49, 63)" stroke="none" stroke-width="1px">0</text><text x="151.51964285714286" y="0" dx="0em" dy="0.95em" style="text-anchor: middle; visibility: inherit; font-family: Roboto, sans-serif; font-size: 12px; font-weight: 200;" fill="rgb(50, 49, 63)" stroke="none" stroke-width="1px">5</text><text x="227.27946428571428" y="0" dx="0em" dy="0.95em" style="text-anchor: middle; visibility: inherit; font-family: Roboto, sans-serif; font-size: 12px; font-weight: 200;" fill="rgb(50, 49, 63)" stroke="none" stroke-width="1px">10</text><text x="303.0392857142857" y="0" dx="0em" dy="0.95em" style="text-anchor: middle; visibility: inherit; font-family: Roboto, sans-serif; font-size: 12px; font-weight: 200;" fill="rgb(50, 49, 63)" stroke="none" stroke-width="1px">15</text><text x="378.79910714285717" y="0" dx="0em" dy="0.95em" style="text-anchor: middle; visibility: inherit; font-family: Roboto, sans-serif; font-size: 12px; font-weight: 200;" fill="rgb(50, 49, 63)" stroke="none" stroke-width="1px">20</text><text x="454.55892857142857" y="0" dx="0em" dy="0.95em" style="text-anchor: middle; visibility: inherit; font-family: Roboto, sans-serif; font-size: 12px; font-weight: 200;" fill="rgb(50, 49, 63)" stroke="none" stroke-width="1px">25</text><text x="530.31875" y="0" dx="0em" dy="0.95em" style="text-anchor: middle; visibility: inherit; font-family: Roboto, sans-serif; font-size: 12px; font-weight: 200;" fill="rgb(50, 49, 63)" stroke="none" stroke-width="1px">30</text><text x="606.0785714285714" y="0" dx="0em" dy="0.95em" style="text-anchor: middle; visibility: inherit; font-family: Roboto, sans-serif; font-size: 12px; font-weight: 200;" fill="rgb(50, 49, 63)" stroke="none" stroke-width="1px">35</text><text x="681.8383928571429" y="0" dx="0em" dy="0.95em" style="text-anchor: middle; visibility: inherit; font-family: Roboto, sans-serif; font-size: 12px; font-weight: 200;" fill="rgb(50, 49, 63)" stroke="none" stroke-width="1px">40</text><text x="757.5982142857143" y="0" dx="0em" dy="0.95em" style="text-anchor: middle; visibility: inherit; font-family: Roboto, sans-serif; font-size: 12px; font-weight: 200;" fill="rgb(50, 49, 63)" stroke="none" stroke-width="1px">45</text><text x="833.3580357142857" y="0" dx="0em" dy="0.95em" style="text-anchor: middle; visibility: inherit; font-family: Roboto, sans-serif; font-size: 12px; font-weight: 200;" fill="rgb(50, 49, 63)" stroke="none" stroke-width="1px">50</text><text x="909.1178571428571" y="0" dx="0em" dy="0.95em" style="text-anchor: middle; visibility: inherit; font-family: Roboto, sans-serif; font-size: 12px; font-weight: 200;" fill="rgb(50, 49, 63)" stroke="none" stroke-width="1px">55</text><text x="984.8776785714286" y="0" dx="0em" dy="0.95em" style="text-anchor: middle; visibility: inherit; font-family: Roboto, sans-serif; font-size: 12px; font-weight: 200;" fill="rgb(50, 49, 63)" stroke="none" stroke-width="1px">60</text><text x="1060.6375" y="0" dx="0em" dy="0.95em" style="text-anchor: middle; visibility: hidden; font-family: Roboto, sans-serif; font-size: 12px; font-weight: 200;" fill="rgb(50, 49, 63)" stroke="none" stroke-width="1px">65</text></g><line x1="0" y1="0" x2="1060.6375" y2="0" fill="rgb(0, 0, 0)" stroke="rgb(204, 204, 204)" stroke-width="1px"></line></g></g></g></g></svg>